<svg width="14" height="14" viewBox="0 0 14 14" fill="none" xmlns="http://www.w3.org/2000/svg">
<path d="M7.00001 1.16666C3.78001 1.16666 1.16667 3.77999 1.16667 6.99999C1.16667 10.22 3.78001 12.8333 7.00001 12.8333C10.22 12.8333 12.8333 10.22 12.8333 6.99999C12.8333 3.77999 10.22 1.16666 7.00001 1.16666ZM7.00001 11.6667C4.42751 11.6667 2.33334 9.57249 2.33334 6.99999C2.33334 4.42749 4.42751 2.33332 7.00001 2.33332C9.57251 2.33332 11.6667 4.42749 11.6667 6.99999C11.6667 9.57249 9.57251 11.6667 7.00001 11.6667ZM9.67751 4.42166L5.83334 8.26582L4.32251 6.76082L3.50001 7.58332L5.83334 9.91666L10.5 5.24999L9.67751 4.42166Z" fill="#A915B6"/>
</svg>
