<svg width="266" height="274" viewBox="0 0 266 274" fill="none" xmlns="http://www.w3.org/2000/svg">
<path d="M117.099 227.686C130.198 220.773 139.82 215.948 156.862 236.126C173.904 256.304 205.637 265.547 224.917 241.57C232.106 232.623 246.76 212.034 235.957 178.836C229.87 160.17 215.785 144.777 206.915 124.318C190.878 87.328 178.768 48.3605 164.312 49.2023C122.627 51.63 133.7 20.521 95.4404 17.8476C26.1675 13.0072 11.796 77.0811 31.2367 115.416C51.8232 156.034 38.3743 182.543 53.0422 203.744C71.0066 229.718 99.41 237.02 117.099 227.686Z" fill="#F7F4FC"/>
<path d="M83.4457 156.994C122.459 156.994 154.085 123.377 154.085 81.9091C154.085 40.4409 122.459 6.82434 83.4457 6.82434C44.4328 6.82434 12.8065 40.4409 12.8065 81.9091C12.8065 123.377 44.4328 156.994 83.4457 156.994Z" stroke="#B150D2" stroke-width="4.99" stroke-miterlimit="10" stroke-linecap="round" stroke-dasharray="4.99 19.95"/>
<path d="M180.719 271C219.732 271 251.358 237.383 251.358 195.915C251.358 154.447 219.732 120.831 180.719 120.831C141.706 120.831 110.08 154.447 110.08 195.915C110.08 237.383 141.706 271 180.719 271Z" stroke="#B150D2" stroke-width="4.99" stroke-miterlimit="10" stroke-linecap="round" stroke-dasharray="4.99 19.95"/>
<path d="M75.1249 42.9992C74.8768 79.9683 74.1665 207.493 75.8299 252.651C76.0075 257.434 79.0314 261.223 82.7447 261.311C101.115 261.756 168.446 262.506 198.455 260.338C204.706 259.887 209.597 253.266 209.629 245.196C209.767 206.392 209.78 97.2564 205.884 47.3338C205.417 41.3526 201.706 36.648 197.066 36.1336C177.037 33.9161 109.364 28.832 83.4445 31.4697C78.7703 31.9464 75.1666 36.9522 75.1249 42.9992Z" fill="url(#paint0_linear)"/>
<path d="M82.1376 53.8938C81.5191 83.9729 79.6347 184.033 81.0893 220.993C81.3015 226.394 84.6456 230.705 88.8205 230.946C106.01 231.938 164.634 233.746 189.788 230.677C194.319 230.127 197.818 225.304 197.991 219.429C198.884 188.736 201.398 95.5533 199.982 59.0044C199.76 53.1764 196.209 48.4734 191.711 48.0341C173.104 46.2105 110.788 42.1997 89.4023 44.0992C85.3873 44.4563 82.245 48.6852 82.1376 53.8938Z" fill="#F7F4FC"/>
<rect x="53.9158" y="53.4075" width="133.172" height="169.403" fill="white"/>
<path d="M74.7727 185.63C74.7324 183.758 76.4572 182.109 78.4151 182.148C81.6484 182.151 83.2744 185.905 80.9906 188.092C79.9464 189.116 78.2446 189.403 76.8946 188.795L74.8434 189.476L75.4879 187.702C75.0196 187.1 74.7727 186.386 74.7727 185.63ZM76.9231 188.328C79.0134 189.404 81.626 187.903 81.6059 185.63C81.6059 183.948 80.1745 182.58 78.4151 182.58C75.7039 182.573 74.224 185.665 75.9953 187.622L75.5759 188.776L76.9231 188.328Z" fill="#D9D2E3"/>
<path d="M66.5534 189.237C66.4475 189.237 66.3455 189.198 66.2659 189.129C65.9655 188.866 65.6758 188.618 65.4202 188.4L65.4189 188.399C64.6697 187.76 64.0226 187.208 63.5724 186.664C63.0692 186.055 62.8348 185.479 62.8348 184.849C62.8348 184.237 63.0443 183.673 63.4248 183.259C63.8098 182.841 64.3381 182.611 64.9124 182.611C65.3418 182.611 65.7349 182.747 66.081 183.015C66.2556 183.15 66.4139 183.316 66.5534 183.509C66.6929 183.316 66.8512 183.15 67.0259 183.015C67.372 182.747 67.7651 182.611 68.1944 182.611C68.7688 182.611 69.2971 182.841 69.6821 183.259C70.0626 183.673 70.272 184.237 70.272 184.849C70.272 185.479 70.0377 186.055 69.5345 186.664C69.0843 187.208 68.4373 187.76 67.6881 188.399C67.4321 188.617 67.142 188.865 66.8409 189.129C66.7614 189.198 66.6592 189.237 66.5534 189.237ZM64.9124 183.047C64.4612 183.047 64.0466 183.227 63.745 183.555C63.439 183.887 63.2704 184.347 63.2704 184.849C63.2704 185.379 63.467 185.853 63.9078 186.385C64.3339 186.9 64.9677 187.441 65.7014 188.067L65.7028 188.068C65.9593 188.287 66.2501 188.535 66.5528 188.8C66.8573 188.535 67.1485 188.286 67.4056 188.067C68.1393 187.441 68.773 186.9 69.1991 186.385C69.6398 185.853 69.8364 185.379 69.8364 184.849C69.8364 184.347 69.6679 183.887 69.3618 183.555C69.0603 183.227 68.6457 183.047 68.1944 183.047C67.8639 183.047 67.5604 183.152 67.2924 183.36C67.0535 183.545 66.8872 183.779 66.7896 183.942C66.7395 184.027 66.6512 184.077 66.5534 184.077C66.4557 184.077 66.3674 184.027 66.3172 183.942C66.2197 183.779 66.0534 183.545 65.8145 183.36C65.5465 183.152 65.243 183.047 64.9124 183.047Z" fill="#D9D2E3"/>
<path d="M94.889 182.147L86.5804 185.482V185.964L88.9601 186.693L89.7127 189.088L90.3135 189.088L91.2821 188.105L93.3268 189.595L93.7248 189.445L95.232 182.433L94.889 182.147ZM93.3107 188.959L90.6178 186.997L90.3177 187.402L90.8694 187.804L90.0857 188.585L89.4708 186.628L93.0326 184.518L92.7727 184.086L89.1585 186.227L87.41 185.692L94.6365 182.791L93.3107 188.959Z" fill="#D9D2E3"/>
<rect x="61.7567" y="62.3372" width="116.79" height="113.602" fill="#E8E6FF"/>
<path d="M178.547 125.389H61.7567L61.8804 176.077H178.547V125.389Z" fill="#6359D6"/>
<path d="M147.617 136.741C145.687 135.861 143.349 139.351 142.421 141.205C143.369 140.45 145.588 138.829 146.875 138.389C148.483 137.84 150.215 141.892 152.133 141.961C154.05 142.029 154.545 138.595 156.277 138.389C158.009 138.183 160.607 142.922 161.906 142.922C163.205 142.922 164.566 138.939 166.175 137.565C167.461 136.466 169.35 138.343 170.134 139.419C169.824 138.526 168.723 136.576 166.793 135.916C164.381 135.092 163.515 140.312 161.906 141.205C160.298 142.098 159.618 137.565 156.772 136.741C153.927 135.916 153.927 139.557 152.133 140.312C150.339 141.068 150.029 137.84 147.617 136.741Z" fill="white"/>
<path d="M118.42 160.917C116.49 160.038 114.151 163.527 113.223 165.382C114.172 164.626 116.391 163.005 117.677 162.566C119.286 162.016 121.018 166.068 122.935 166.137C124.853 166.206 125.348 162.772 127.08 162.566C128.812 162.359 131.41 167.099 132.709 167.099C134.008 167.099 135.369 163.115 136.977 161.741C138.264 160.642 140.153 162.52 140.936 163.596C140.627 162.703 139.526 160.752 137.596 160.093C135.183 159.269 134.317 164.489 132.709 165.382C131.101 166.274 130.42 161.741 127.575 160.917C124.729 160.093 124.729 163.733 122.935 164.489C121.141 165.244 120.832 162.016 118.42 160.917Z" fill="white"/>
<path d="M175.639 88.7117H137.1C138.028 84.9112 141.233 77.2141 146.627 76.8294C152.021 76.4448 154.194 81.3397 154.607 83.8352C155.617 82.4844 158.343 79.8515 161.164 80.1263C163.984 80.401 164.69 83.6749 164.69 85.2775C165.329 85.186 167.325 85.0577 170.195 85.2775C173.065 85.4973 175.02 87.6586 175.639 88.7117Z" fill="white"/>
<path d="M136.544 97.5719H120.956C121.822 95.5343 124.197 91.5278 126.771 91.8025C129.344 92.0772 130.853 94.7101 131.286 95.9922C131.616 95.3511 132.697 94.1927 134.379 94.6872C136.062 95.1817 136.524 96.8164 136.544 97.5719Z" fill="white"/>
<path d="M109.264 76.7607H86.7469C87.9978 73.7114 91.4289 67.7156 95.146 68.1267C98.863 68.5379 101.043 72.478 101.669 74.3966C102.145 73.4373 103.706 71.7037 106.136 72.4437C108.567 73.1838 109.234 75.6301 109.264 76.7607Z" fill="white"/>
<path d="M94.9126 106.569H64.7254C66.4025 102.262 71.0024 93.7913 75.9857 94.3721C80.969 94.9529 83.8919 100.519 84.7304 103.23C85.3693 101.874 87.4617 99.4252 90.72 100.471C93.9783 101.516 94.8727 104.972 94.9126 106.569Z" fill="white"/>
<path d="M62.9316 176.008L78.7676 152.793L61.8182 144.895V176.008H62.9316Z" fill="#F8DED8"/>
<path d="M137.906 157.464C132.61 156.42 123.162 149.016 119.1 145.444L127.204 127.312C129.225 128.434 133.637 130.485 135.122 129.716C136.978 128.754 142.607 118.383 144.896 114.605C146.727 111.583 147.143 110.553 147.123 110.21C146.38 106.432 145.193 97.5856 146.38 92.4205C147.568 87.2555 150.999 87.5669 152.566 88.3682C153.824 81.4312 157.082 67.6808 160.051 68.1753C163.02 68.6699 161.866 81.3396 160.917 87.6127C162.464 81.1794 166.373 68.6699 169.639 70.0985C172.905 71.5271 170.34 81.8204 168.65 86.7885C169.227 86.6511 170.666 86.6237 171.804 87.6127C172.943 88.6018 172.773 91.23 172.547 92.4205C173.598 91.894 175.949 92.2832 176.939 98.0526C178.176 105.264 172.918 115.567 164.072 129.716C155.226 143.864 144.524 158.769 137.906 157.464Z" fill="#F8DED8"/>
<path d="M168.401 87.2006C164.834 89.8106 157.452 96.7064 156.463 103.41C155.225 111.789 160.298 109.523 161.288 107.737" stroke="#EFD3CC" stroke-width="3" stroke-linecap="round"/>
<path d="M171.99 92.4893C169.701 94.4353 164.665 99.4401 162.834 103.891C160.546 109.454 161.845 111.995 163.577 112.476C165.309 112.957 167.721 109.798 169.33 106.844C170.616 104.481 172.34 102.426 173.041 101.693" stroke="#EFD3CC" stroke-width="3" stroke-linecap="round"/>
<path d="M152.813 88.7803C153.865 89.1238 164.752 94.7558 164.257 97.9839C163.762 101.212 160.298 100.731 157.576 99.3576C155.399 98.2586 154.566 97.6176 154.422 97.4344C155.205 98.6478 156.537 101.775 155.597 104.578C154.657 107.38 153.638 108.905 153.246 109.317" stroke="#EFD3CC" stroke-width="3" stroke-linecap="round"/>
<path d="M162.031 94.8245C161.833 94.4948 160.959 93.8172 160.484 93.5195L158.752 93.7943L155.412 97.7092C155.927 98.0984 157.107 98.9455 157.701 99.2202C158.295 99.495 158.938 99.6552 159.185 99.701C160.216 98.2129 162.229 95.1542 162.031 94.8245Z" fill="#F8DED8"/>
<path d="M93.7376 120.512L94.9748 107.668H94.8511H94.1088C93.2427 107.668 91.3251 106.157 89.7168 101.761C88.4301 98.2449 90.2529 97.5947 91.3251 97.7092L94.9748 86.8572L106.481 82.2554C108.378 82.9194 112.419 84.7692 113.409 86.8572C114.646 89.4672 118.296 100.937 116.749 108.08C115.512 113.795 109.965 115.727 107.594 115.979V118.039C107.594 119.276 111.367 128.479 105.243 130.059C100.344 131.323 95.5315 124.221 93.7376 120.512Z" fill="#F8DED8"/>
<path d="M102.893 114.743C101.309 113.809 98.3155 111.377 97.0164 110.278C97.6969 111.331 99.3918 113.506 101.47 115.979C103.202 118.039 106.44 117.833 107.594 117.49L107.656 115.979C106.708 115.773 104.477 115.677 102.893 114.743Z" fill="#EFD3CC"/>
<path d="M92.3009 102.647C92.218 102.258 92.4063 101.458 92.5107 101.107C92.2423 101.377 91.7358 102.152 91.8579 103.092C92.0105 104.268 93.0219 105.687 93.6822 105.688C94.3425 105.688 94.587 104.999 93.987 103.904C93.507 103.029 92.9967 103.35 92.8016 103.62C92.6692 103.458 92.3838 103.036 92.3009 102.647Z" fill="#EFD3CC"/>
<ellipse rx="1.98069" ry="1.30203" transform="matrix(0.990018 0.140943 -0.11209 0.993698 102.834 102.51)" fill="#F1BFB2"/>
<ellipse rx="1.27661" ry="1.02797" transform="matrix(0.734807 -0.678276 0.601663 0.79875 114.285 98.2285)" fill="#F1BFB2"/>
<path d="M108.022 105.063C109.919 104.872 111.909 104.333 112.668 104.088C112.655 104.63 112.228 105.365 111.528 106.159C110.929 106.838 110.179 107.597 108.768 107.885C105.708 108.508 104.722 106.31 104.611 105.133C104.958 105.19 106.126 105.255 108.022 105.063Z" fill="white"/>
<path d="M109.258 101.801L111.545 100.816C111.652 101.062 111.675 101.67 110.91 102.13C110.144 102.59 109.489 102.102 109.258 101.801Z" fill="#F1BFB2"/>
<path d="M91.0158 97.7779L90.5828 96.5416L94.1088 89.6733L98.8719 81.2939L109.635 78.8213C111.12 79.5081 114.188 81.3351 114.584 83.1483C115.079 85.4149 113.656 87.0633 108.646 88.2996C104.637 89.2886 98.8513 88.0706 96.4594 87.338L95.779 88.643C95.9646 88.9177 96.3605 89.948 96.4594 91.8711C96.5584 93.7943 96.047 99.1287 95.779 101.555C95.4491 100.96 94.5418 99.6049 93.5521 98.9455C92.5623 98.2862 91.4489 97.8924 91.0158 97.7779Z" fill="#0F0E12"/>
<path d="M91.0155 97.8465V97.1597L95.5313 88.5743L106.728 74.1508C104.171 72.6855 97.6221 71.4446 91.8816 78.2031C86.1411 84.9615 88.9123 94.1147 91.0155 97.8465Z" fill="#FFBC5B"/>
<path d="M104.687 81.8433C99.3423 84.4257 93.2637 93.3134 90.8924 97.4344C91.6966 94.7557 93.7998 88.3133 95.7793 83.9725C98.2536 78.5465 101.347 75.0436 109.203 71.8842C117.059 68.7248 119.1 70.3045 118.667 72.8458C118.321 74.8788 115.224 79.4622 113.718 81.4998C112.935 80.5383 110.032 79.2608 104.687 81.8433Z" fill="#EA9A26"/>
<path d="M101.161 94.1377C100.666 93.5195 101.408 92.9014 101.903 92.5579C102.398 92.2145 102.918 91.9948 103.264 91.9398C103.697 91.8711 104.687 92.3519 104.007 93.0387C103.326 93.7256 101.656 94.7558 101.161 94.1377Z" fill="#0F0E12"/>
<path d="M112.482 89.878C112.492 88.9435 111.492 88.8034 110.87 88.7785C110.247 88.7536 109.683 88.868 109.366 89.0356C108.969 89.2451 108.468 90.3602 109.46 90.6085C110.453 90.8569 112.472 90.8124 112.482 89.878Z" fill="#0F0E12"/>
<path d="M102.707 126.9C97.9562 127.449 94.6653 121.817 93.6137 118.932C92.7271 118.932 89.8898 119.468 85.6339 121.611C81.378 123.754 68.0453 133.768 61.8182 138.576V144.826L78.4583 152.862L75.056 158.151L71.2208 176.008H124.914L117.12 145.582L119.966 147.505L133.265 128.479C132.667 127.953 129.801 126.254 123.121 123.672C116.44 121.089 110.274 119.436 108.027 118.932C108.233 121.359 107.458 126.35 102.707 126.9Z" fill="#532582"/>
<path d="M71.159 175.939L75.0561 158.219C74.8705 159.73 74.8458 163.865 75.984 168.59C77.1222 173.316 78.3965 175.459 78.8914 175.939H71.159Z" fill="#3E1766"/>
<ellipse rx="1.25022" ry="1.63417" transform="matrix(0.943468 -0.331463 0.274095 0.961702 103.84 98.2528)" fill="#0F0E12"/>
<ellipse rx="0.969317" ry="1.40297" transform="matrix(0.943461 -0.331482 0.274079 0.961707 111.924 95.4649)" fill="#0F0E12"/>
<path d="M78.582 152.862L70.5403 148.947L65.9627 146.749C68.1484 147.138 73.4105 147.821 76.9736 147.436C80.5367 147.051 83.242 145.994 84.1493 145.513L78.582 152.862Z" fill="#3E1766"/>
<path d="M111.12 141.598L119.966 147.436L124.915 140.362C123.863 141.117 121.302 142.656 119.471 142.766C117.64 142.875 113.141 142.033 111.12 141.598Z" fill="#3E1766"/>
<path d="M171.482 154.785H159.26C158.843 154.785 158.505 155.16 158.505 155.624V169.194C158.505 169.657 158.843 170.033 159.26 170.033H171.482C171.899 170.033 172.237 169.657 172.237 169.194V155.624C172.237 155.16 171.899 154.785 171.482 154.785Z" fill="white"/>
<path d="M162.603 155.906H159.516V159.335H162.605L162.603 155.906ZM162.128 158.808H159.99V156.434H162.128V158.808Z" fill="black"/>
<path d="M161.592 157.029H160.526V158.212H161.592V157.029Z" fill="black"/>
<path d="M171.247 155.906H168.159V159.335H171.247V155.906ZM170.772 158.808H168.634V156.434H170.772V158.808Z" fill="black"/>
<path d="M170.236 157.029H169.171V158.212H170.236V157.029Z" fill="black"/>
<path d="M159.515 168.934H162.604V165.504H159.515V168.934ZM159.991 166.032H162.127V168.407H159.989L159.991 166.032Z" fill="black"/>
<path d="M161.592 166.628H160.526V167.811H161.592V166.628Z" fill="black"/>
<path d="M166.267 159.193H166.907V159.734H167.299V159.193V158.183H166.907H166.267H165.85H165.255V159.192H164.614V159.193V159.846H165.255V159.193H165.85V160.301H166.267V159.193Z" fill="black"/>
<path d="M166.907 157.262H167.299V156.342V155.906H166.907H166.078V156.342H166.907V157.262Z" fill="black"/>
<path d="M164.294 155.906H163.463V156.698H164.294V155.906Z" fill="black"/>
<path d="M170.724 160.29H170.186V160.975H170.724V161.183H169.651V161.899H170.724V162.598H171.247V161.899V161.186V160.302V160.29H170.724Z" fill="black"/>
<path d="M168.116 165.207V164.776H167.113V165.87H168.116V165.207ZM167.729 165.297V165.448H167.5V165.199H167.729V165.297Z" fill="black"/>
<path d="M164.293 165.158H163.463V166.096H164.293V165.158Z" fill="black"/>
<path d="M163.005 164.551H163.66H164.254V163.826H163.005V164.551Z" fill="black"/>
<path d="M164.293 160.53V160.302V159.708H163.677V160.521H162.997V160.53V161.186H164.293V160.53Z" fill="black"/>
<path d="M160.4 161.899H159.514V162.598H160.4V161.899Z" fill="black"/>
<path d="M160.628 161.185H160.298V160.302H159.514V161.186H160.297V161.559H160.628V161.185Z" fill="black"/>
<path d="M166.267 168.185H165.849V168.935H166.267H166.906V167.654H166.267V168.185Z" fill="black"/>
<path d="M160.608 163.259H159.514V164.55H160.608V163.259Z" fill="black"/>
<path d="M160.905 164.551H162.546V163.826H161.904V163.259H160.905V164.551ZM161.116 163.734H161.426V164.079H161.116V163.734Z" fill="black"/>
<path d="M163.575 162.923H163.005V163.259V163.489H163.575V163.259V162.923Z" fill="black"/>
<path d="M167.953 162.992H167.397V163.559H167.953V162.992Z" fill="black"/>
<path d="M171.248 163.259H170.724V163.826H171.248V163.259Z" fill="black"/>
<path d="M164.377 158.96H164.886V158.159H164.377H164.123H163.463V158.96H164.123H164.377Z" fill="black"/>
<path d="M164.293 166.485H163.463V167.198H164.293V166.485Z" fill="black"/>
<path d="M166.907 166.38H166.267V167.074H166.907V166.38Z" fill="black"/>
<path d="M170.724 167.074V167.957H169.762V168.934H170.724H171.248V167.074V166.096H170.724V167.074Z" fill="black"/>
<path d="M169.353 160.579H168.555V161.185H169.353V160.579Z" fill="black"/>
<path d="M168.323 165.158H169.221V163.826H168.323H166.907V163.259V162.598H166.267V163.259H165.85V163.826V164.551V165.158H165.255V164.551H164.614V165.158V166.096H165.255V167.073H165.85V166.096H166.267V165.205H166.907V164.551V164.487H168.323V164.551V165.158Z" fill="black"/>
<path d="M169.642 165.158V165.174H170.335V165.158V164.407H169.642V165.158Z" fill="black"/>
<path d="M170.338 165.681H170.725H170.796V165.173H170.725H170.338V165.681Z" fill="black"/>
<path d="M170.077 166.096V166.037H168.49V166.096V167.014H170.077V166.096Z" fill="black"/>
<path d="M169.309 167.562H168.549V168.934H169.309V167.562Z" fill="black"/>
<path d="M168.145 166.638H167.135V167.317H168.145V166.638Z" fill="black"/>
<path d="M168.145 167.66H167.801V168.05H168.145V167.66Z" fill="black"/>
<path d="M168.145 168.373H167.135V168.934H168.145V168.373Z" fill="black"/>
<path d="M161.904 161.186H162.546V160.302V160.29H161.904V160.302V161.186Z" fill="black"/>
<path d="M166.267 161.899H166.906V162.598H169.499V161.899H168.323V160.302H166.906V161.186H165.851V161.899H166.267ZM167.77 161.758V161.342H168.144V161.758H167.77Z" fill="black"/>
<path d="M165.255 161.186H165.85V160.302H165.255H164.614V161.186V161.899H165.255V161.186Z" fill="black"/>
<path d="M165.85 156.718H165.256V155.906H164.614V157.886H165.85V156.718Z" fill="black"/>
<path d="M165.85 161.899H165.256V162.598H164.614V161.899H164.294H162.546H161.904H160.608V162.598H161.904V163.259H162.546V162.598H164.294V163.259H164.614V163.826H165.256V163.259H165.85V162.598V161.899Z" fill="black"/>
<path d="M164.21 168.09H163.463V168.935H164.21H164.293H165.47V167.674H164.21V168.09Z" fill="black"/>
<path d="M166.593 156.738H166.13V157.253H166.593V156.738Z" fill="black"/>
<path d="M170.239 162.598V162.93H169.642V163.593H170.24V162.931H170.613V162.598V162.515H170.239V162.598Z" fill="black"/>
<path d="M161.542 161.199H161.143V161.642H161.542V161.199Z" fill="black"/>
<path d="M168.013 159.516H167.615V159.959H168.013V159.516Z" fill="black"/>
<rect x="61.7977" y="196.264" width="100.19" height="5.39928" rx="2.69964" fill="#F7F4FC"/>
<rect x="61.7977" y="203.013" width="32.1522" height="5.39928" rx="2.69964" fill="#F7F4FC"/>
<rect x="97.0623" y="203.013" width="14.1055" height="5.39928" rx="2.69964" fill="#F7F4FC"/>
<defs>
<linearGradient id="paint0_linear" x1="204.415" y1="288.654" x2="49.5096" y2="18.3847" gradientUnits="userSpaceOnUse">
<stop stop-color="#662D91"/>
<stop offset="1" stop-color="#00003D"/>
</linearGradient>
</defs>
</svg>
