<svg width="175" height="281" viewBox="0 0 175 281" fill="none" xmlns="http://www.w3.org/2000/svg">
<path d="M87.4548 173.54C134.266 173.54 172.214 135.363 172.214 88.27C172.214 41.1767 134.266 3 87.4548 3C40.6435 3 2.69547 41.1767 2.69547 88.27C2.69547 135.363 40.6435 173.54 87.4548 173.54Z" stroke="#B150D2" stroke-width="4.99" stroke-miterlimit="10" stroke-linecap="round" stroke-dasharray="4.99 19.95"/>
<path d="M55.2872 101.29C49.3643 92.7122 49.5855 77.8027 50.4365 71.4202V56.3575C50.7769 68.5268 53.398 93.7334 64.2227 101.29C75.0474 108.847 76.9876 107.673 74.4347 81.8875C71.8817 56.1022 73.6688 51.2516 75.7111 35.9336C77.7535 20.6157 81.8383 22.4028 80.8171 35.9336C79.7959 49.4645 81.583 76.2709 85.9231 104.099C90.2632 131.926 96.901 139.84 101.241 136.522C105.581 133.203 120.389 119.672 122.176 96.6948C123.605 78.3133 123.963 51.7622 123.963 40.7843L129.324 45.3797C128.898 55.3364 128.048 81.0195 128.048 104.099C128.048 127.178 111.708 147.925 103.283 150.308C106.602 158.222 112.627 171.395 118.346 197.538C124.065 223.681 116.304 237.109 111.964 245.024L85.9231 222.302C89.5824 209.197 95.5734 179.667 90.2632 166.392C84.953 153.116 79.2002 124.948 76.9876 112.523C72.2221 112.353 61.2102 109.868 55.2872 101.29Z" fill="#C5A9CE"/>
<path d="M72.4674 90.8358C75.9509 76.5435 67.311 62.1749 53.1698 58.7426C39.0285 55.3104 24.7409 64.1143 21.2574 78.4067C17.7739 92.6991 26.4137 107.068 40.555 110.5C54.6963 113.932 68.9839 105.128 72.4674 90.8358Z" fill="#B150D1"/>
<g clip-path="url(#clip0)">
<path d="M60.3661 78.6555C60.3003 77.1633 60.059 76.1375 59.7133 75.2486C59.3568 74.305 58.8082 73.4603 58.0894 72.758C57.3871 72.0448 56.5368 71.4906 55.6042 71.1396C54.7101 70.794 53.6897 70.5527 52.1975 70.4869C50.6942 70.4155 50.217 70.399 46.4042 70.399C42.5914 70.399 42.1142 70.4155 40.6164 70.4813C39.1243 70.5471 38.0984 70.7886 37.2098 71.1341C36.266 71.4906 35.4212 72.0393 34.719 72.758C34.0058 73.4603 33.4518 74.3106 33.1006 75.2432C32.7549 76.1375 32.5136 77.1577 32.4478 78.6499C32.3765 80.1532 32.36 80.6304 32.36 84.4432C32.36 88.256 32.3765 88.7332 32.4423 90.231C32.5081 91.7231 32.7496 92.749 33.0952 93.6379C33.4518 94.5814 34.0058 95.4262 34.719 96.1284C35.4212 96.8416 36.2716 97.3958 37.2042 97.7468C38.0984 98.0925 39.1187 98.3338 40.6111 98.3996C42.1086 98.4656 42.586 98.4818 46.3988 98.4818C50.2116 98.4818 50.6889 98.4656 52.1866 98.3996C53.6787 98.3338 54.7046 98.0925 55.5933 97.7468C57.4806 97.0171 58.9727 95.525 59.7024 93.6379C60.0479 92.7436 60.2894 91.7231 60.3552 90.231C60.421 88.7332 60.4375 88.256 60.4375 84.4432C60.4375 80.6304 60.4319 80.1532 60.3661 78.6555ZM57.8372 90.1212C57.7767 91.4928 57.5464 92.2334 57.3544 92.7271C56.8825 93.9505 55.9115 94.9215 54.6881 95.3934C54.1943 95.5854 53.4484 95.8158 52.0822 95.876C50.601 95.942 50.1568 95.9583 46.4098 95.9583C42.6628 95.9583 42.213 95.942 40.7371 95.876C39.3656 95.8158 38.625 95.5854 38.1312 95.3934C37.5224 95.1684 36.9682 94.8118 36.5184 94.3455C36.0521 93.8901 35.6955 93.3415 35.4705 92.7327C35.2785 92.2389 35.0481 91.4928 34.9879 90.1268C34.9219 88.6456 34.9056 88.2011 34.9056 84.4541C34.9056 80.7072 34.9219 80.2573 34.9879 78.7817C35.0481 77.4102 35.2785 76.6696 35.4705 76.1758C35.6955 75.5668 36.0521 75.0128 36.524 74.5628C36.9792 74.0965 37.5278 73.7399 38.1368 73.5151C38.6305 73.3231 39.3767 73.0927 40.7427 73.0323C42.2239 72.9665 42.6683 72.95 46.4151 72.95C50.1677 72.95 50.6119 72.9665 52.0878 73.0323C53.4593 73.0927 54.1999 73.3231 54.6936 73.5151C55.3025 73.7399 55.8566 74.0965 56.3064 74.5628C56.7728 75.0182 57.1293 75.5668 57.3544 76.1758C57.5464 76.6696 57.7767 77.4155 57.8372 78.7817C57.903 80.2629 57.9195 80.7072 57.9195 84.4541C57.9195 88.2011 57.903 88.64 57.8372 90.1212Z" fill="white"/>
<path d="M46.4045 77.229C42.4218 77.229 39.1904 80.4602 39.1904 84.4431C39.1904 88.4261 42.4218 91.6573 46.4045 91.6573C50.3874 91.6573 53.6186 88.4261 53.6186 84.4431C53.6186 80.4602 50.3874 77.229 46.4045 77.229ZM46.4045 89.1228C43.8207 89.1228 41.7249 87.0271 41.7249 84.4431C41.7249 81.8591 43.8207 79.7635 46.4045 79.7635C48.9885 79.7635 51.0841 81.8591 51.0841 84.4431C51.0841 87.0271 48.9885 89.1228 46.4045 89.1228Z" fill="white"/>
<path d="M55.5882 76.9437C55.5882 77.8738 54.8341 78.6279 53.9039 78.6279C52.9738 78.6279 52.2197 77.8738 52.2197 76.9437C52.2197 76.0135 52.9738 75.2596 53.9039 75.2596C54.8341 75.2596 55.5882 76.0135 55.5882 76.9437Z" fill="white"/>
</g>
<path d="M125.75 270.554H109.921L98.4326 247.577L109.411 249.619L125.75 270.554Z" fill="white"/>
<path d="M123.707 272.596C122.482 271.371 112.815 257.959 108.134 251.406L128.048 256.002C130.345 259.15 135.911 266.775 139.791 272.085C144.642 278.723 144.642 278.979 141.068 280C137.494 281.021 125.239 274.128 123.707 272.596Z" fill="#320D57"/>
<path d="M24.9071 275.149C24.4986 274.128 30.6938 267.065 33.8425 263.661L49.1604 267.49C47.7137 268.341 43.3907 270.758 37.672 273.617C30.5236 277.191 25.4177 276.426 24.9071 275.149Z" fill="#320D57"/>
<path d="M60.649 235.833C65.5507 237.671 67.457 237.28 67.7974 236.854H85.9236L124.474 234.301C126.346 234.131 131.52 234.046 137.239 235.067C144.387 236.344 153.323 242.471 151.025 253.959C148.727 265.448 128.303 268.511 125.495 267.49C122.687 266.469 108.645 251.406 107.624 251.406C106.807 251.406 102.178 249.534 99.965 248.598L114.262 273.617C110.943 273.702 100.884 273.668 87.2001 272.851C70.095 271.83 45.331 270.043 34.8638 264.937C24.3965 259.831 21.8435 249.874 30.0131 239.407C38.1827 228.94 54.5218 233.535 60.649 235.833Z" fill="#0F0E12"/>
<path d="M43.0329 169.455C42.5223 169.71 43.0329 175.072 43.2881 177.625C43.2882 178.22 43.3393 179.463 43.5434 179.667C43.7987 179.922 47.373 181.709 50.1813 182.22C52.9896 182.731 55.5426 182.986 55.7979 181.709C56.0532 180.433 55.032 170.987 54.2661 170.476C53.5002 169.966 43.5434 169.2 43.0329 169.455Z" fill="#0F0E12"/>
<path d="M43.2387 170.015C42.7583 170.261 43.2387 175.432 43.4789 177.895C43.4789 178.469 43.527 179.668 43.7191 179.865C43.9593 180.111 47.3225 181.835 49.965 182.327C52.6074 182.82 55.0096 183.066 55.2499 181.835C55.4901 180.603 54.5292 171.492 53.8085 171C53.0879 170.507 43.7191 169.768 43.2387 170.015Z" fill="#3D3B42"/>
<path d="M40.7358 173.285C42.1655 172.876 43.7143 175.838 44.31 177.369C44.3951 177.455 44.9737 177.42 46.6077 176.603C48.6501 175.582 54.7772 173.285 55.2878 175.582C55.6963 177.42 50.6924 179.752 48.1395 180.688C51.4583 180.518 58.1982 180.586 58.6067 182.22C59.0152 183.854 57.0749 184.603 56.0537 184.773C56.8196 184.688 58.5046 184.977 59.1173 186.815C59.73 188.654 57.8408 189.113 56.8196 189.113C57.6706 189.368 59.3216 190.134 59.1173 191.156C58.9131 192.177 55.6282 192.602 54.0113 192.687C53.756 192.943 53.2454 193.555 53.2454 193.964C53.2454 194.372 52.2242 196.517 51.7136 197.538C53.3305 201.027 56.9218 208.005 58.3514 208.005C59.7811 208.005 61.1597 207.154 61.6703 206.729L73.4141 212.856C71.8823 214.813 67.389 219.851 61.6703 224.344C54.5219 229.961 48.3948 224.855 42.2676 213.877C36.1404 202.899 35.3745 190.39 39.204 184.007C43.0335 177.625 38.9487 173.795 40.7358 173.285Z" fill="#C76256"/>
<path d="M55.7985 184.518L48.9054 184.262H47.1183C47.2034 184.262 48.0884 184.314 50.9478 184.518C52.7859 184.684 55.4581 184.587 55.7985 184.518Z" fill="#0F0E12"/>
<path d="M56.3092 189.113L49.4162 188.858H47.6291C47.7142 188.858 48.5992 188.909 51.4585 189.113C53.2967 189.28 55.9688 189.183 56.3092 189.113Z" fill="#0F0E12"/>
<path d="M68.5633 210.558C66.1125 209.333 62.266 207.495 60.6491 206.729C65.6699 203.58 76.2734 196.976 78.52 195.751C80.7666 194.526 82.1793 194.389 82.6048 194.474C82.6048 197.283 82.6048 201.282 85.1578 200.857C88.8341 200.244 90.3489 196.857 90.7744 194.985C91.7956 195.24 95.0123 196.159 97.6675 197.793C100.323 199.427 109.667 208.005 114.007 212.09L99.7099 216.175L117.07 238.897C102.773 246.045 76.2223 244.513 66.7762 238.897C66.7762 237.875 67.44 236.19 68.0527 233.535C68.6655 230.88 71.712 218.643 73.1587 212.856L68.5633 210.558Z" fill="#480F80"/>
<path d="M122.177 226.132C119.93 222.455 114.603 215.579 112.22 212.601L99.7102 216.175C102.008 219.409 106.603 226.08 106.603 226.897C106.603 227.919 103.284 229.195 98.9443 230.472C94.6042 231.748 86.69 231.493 83.3711 232.514C80.0522 233.535 70.8614 241.705 71.6273 243.492C72.24 244.922 73.5846 245.109 74.1803 245.024C74.0952 245.534 74.1293 246.76 74.9462 247.577C75.7632 248.394 77.4992 247.917 78.2651 247.577C78.0098 248.002 77.8055 249.006 79.031 249.619C80.2564 250.232 81.9243 249.364 82.6051 248.853C82.6051 249.449 83.1157 250.64 85.1581 250.64C87.2005 250.64 91.4555 247.577 93.3277 246.045C95.8807 247.151 103.846 248.036 115.283 242.726C129.58 236.088 124.985 230.727 122.177 226.132Z" fill="#C76256"/>
<path d="M81.4441 238.58L76.0468 242.875L74.6906 244.039C74.7552 243.983 75.4601 243.446 77.763 241.739C79.2663 240.668 81.231 238.854 81.4441 238.58Z" fill="#0F0E12"/>
<path d="M85.5282 241.643L80.1309 245.938L78.7747 247.102C78.8393 247.047 79.5442 246.509 81.8471 244.802C83.3504 243.731 85.315 241.918 85.5282 241.643Z" fill="#0F0E12"/>
<path d="M88.3196 244.213L84.3553 247.278L83.3706 248.123C83.4175 248.083 83.9384 247.704 85.6469 246.507C86.7681 245.764 88.1772 244.427 88.3196 244.213Z" fill="#0F0E12"/>
<path d="M82.8599 199.836C82.6046 198.815 82.6046 192.687 82.6046 192.687L90.7742 187.581V194.73C90.7742 196.262 91.0295 196.262 88.2212 199.58C85.9746 202.236 83.1152 200.857 82.8599 199.836Z" fill="#C76256"/>
<path d="M82.6046 195.751V193.453V192.943C82.8599 192.943 83.728 192.738 85.1576 191.921C86.5873 191.105 89.5828 189.198 90.7742 188.347C90.1785 189.198 88.7318 191.411 87.4553 192.687C86.1788 193.964 83.796 195.325 82.6046 195.751Z" fill="black"/>
<path d="M76.4776 188.347C75.6606 183.65 77.4988 176.348 78.52 173.285C83.1154 173.795 92.3061 175.123 92.3061 176.348V181.199C92.9869 181.029 94.3485 181.097 94.3485 182.731C94.3485 184.365 92.4763 186.305 91.5402 187.071C91.5402 187.496 90.7233 188.909 87.4555 191.156C83.3707 193.964 77.4988 194.219 76.4776 188.347Z" fill="#C76256"/>
<path d="M84.1355 178.901C83.7271 178.697 83.2845 178.646 83.1143 178.646C83.2845 178.391 83.7271 177.931 84.1355 178.135C84.544 178.34 84.8163 179.071 84.9014 179.412C84.8163 179.327 84.544 179.105 84.1355 178.901Z" fill="#0F0E12"/>
<path d="M78.481 178.4C78.9301 178.317 79.3695 178.391 79.533 178.438C79.4403 178.146 79.1426 177.581 78.6935 177.664C78.2444 177.747 77.7797 178.375 77.6036 178.678C77.7089 178.62 78.0319 178.483 78.481 178.4Z" fill="#0F0E12"/>
<ellipse cx="82.8594" cy="181.965" rx="0.510599" ry="0.765898" transform="rotate(10.6087 82.8594 181.965)" fill="#0F0E12"/>
<ellipse cx="78.3963" cy="181.535" rx="0.510599" ry="0.765898" transform="rotate(14.2278 78.3963 181.535)" fill="#0F0E12"/>
<path d="M80.8174 178.391C80.3919 180.007 79.4899 183.343 79.2856 183.752C79.0814 184.16 79.7111 184.943 80.0515 185.284" stroke="#0F0E12"/>
<path d="M80.5615 187.071C80.7317 187.071 81.1742 187.02 81.5827 186.815C81.9912 186.611 82.2635 186.22 82.3486 186.05" stroke="#0F0E12"/>
<path d="M94.3486 174.561C94.3486 172.11 91.9658 171.497 90.7744 171.497C90.6042 170.306 89.6511 167.872 87.2002 167.668C84.7494 167.464 83.1154 168.604 82.8601 169.2C82.775 168.945 82.4005 168.281 81.5836 167.668C80.5624 166.902 73.1587 166.392 74.9458 172.519C76.3755 177.42 79.9667 175.923 81.5836 174.561C81.5836 175.157 82.0942 176.348 84.1366 176.348C86.179 176.348 86.8598 175.327 86.9449 174.816C87.1151 175.157 87.6087 175.94 88.2214 176.348C88.8341 176.757 89.8383 176.518 90.2638 176.348C90.5191 176.689 91.1318 177.471 91.5403 177.88C92.0509 178.391 94.3486 177.625 94.3486 174.561Z" fill="#0F0E12"/>
<path d="M92.5761 182.553C92.2922 183.104 91.7045 184.305 91.6243 184.706C91.5441 185.106 91.8579 185.273 92.0247 185.306" stroke="#0F0E12"/>
<circle cx="44.8206" cy="171.753" r="0.765898" fill="#0F0E12"/>
<path d="M56.8195 141.883C63.5874 141.883 69.0777 136.396 69.0825 129.628C69.0872 122.861 63.6046 117.374 56.8367 117.374C50.0688 117.374 44.5785 122.861 44.5738 129.628C44.569 136.396 50.0516 141.883 56.8195 141.883Z" fill="#B150D1"/>
<g clip-path="url(#clip1)">
<path d="M54.9807 135.143H60.4952C61.0037 135.143 61.4388 134.837 61.6226 134.395L63.473 130.076C63.5281 129.935 63.5588 129.788 63.5588 129.628V128.403C63.5588 127.729 63.0073 127.178 62.3333 127.178H58.4671L59.0492 124.377L59.0676 124.181C59.0676 123.93 58.9634 123.697 58.798 123.532L58.1485 122.889L54.1107 126.926C53.8901 127.147 53.7553 127.453 53.7553 127.79V133.917C53.7553 134.591 54.3067 135.143 54.9807 135.143ZM54.9807 127.79L57.6399 125.131L56.8189 128.403H62.3333V129.628L60.4952 133.917H54.9807V127.79ZM50.079 127.79H52.5299V135.143H50.079V127.79Z" fill="white"/>
</g>
<path d="M109.156 70.399C114.655 70.399 119.116 65.9412 119.119 60.4423C119.123 54.9434 114.669 50.4857 109.17 50.4857C103.671 50.4857 99.2099 54.9434 99.2061 60.4423C99.2022 65.9412 103.657 70.399 109.156 70.399Z" fill="#B150D1"/>
<path d="M108.475 62.0727L112.829 65.293L115.027 56.1022L103.794 60.4305L107.212 61.5396L113.45 57.4407L108.475 62.0727Z" fill="white"/>
<path d="M126.516 54.0599C131.733 54.0599 135.965 49.8307 135.969 44.6138C135.972 39.3969 131.746 35.1677 126.529 35.1677C121.312 35.1677 117.08 39.3969 117.076 44.6138C117.073 49.8307 121.299 54.0599 126.516 54.0599Z" fill="#B150D1"/>
<path d="M128.642 40.3631C127.82 40.3631 127.031 40.7457 126.517 41.3502C126.002 40.7457 125.213 40.3631 124.391 40.3631C122.937 40.3631 121.794 41.5061 121.794 42.9608C121.794 44.7461 123.399 46.2008 125.832 48.4112L126.517 49.0299L127.201 48.4064C129.634 46.2008 131.24 44.7461 131.24 42.9608C131.24 41.5061 130.097 40.3631 128.642 40.3631ZM126.564 47.7074L126.517 47.7547L126.469 47.7074C124.221 45.6718 122.738 44.3257 122.738 42.9608C122.738 42.0162 123.447 41.3077 124.391 41.3077C125.119 41.3077 125.827 41.7753 126.077 42.4223H126.961C127.206 41.7753 127.915 41.3077 128.642 41.3077C129.587 41.3077 130.295 42.0162 130.295 42.9608C130.295 44.3257 128.812 45.6718 126.564 47.7074Z" fill="white"/>
<path d="M152.836 103.4C155.976 90.5157 148.188 77.5633 135.441 74.4693C122.693 71.3753 109.813 79.3116 106.673 92.1953C103.533 105.079 111.321 118.032 124.069 121.126C136.817 124.219 149.696 116.283 152.836 103.4Z" fill="#B150D1"/>
<path d="M103.562 40.5959C106.702 27.7121 98.9137 14.7596 86.1662 11.6657C73.4186 8.57173 60.5391 16.5079 57.399 29.3917C54.2588 42.2755 62.0471 55.228 74.7946 58.3219C87.5422 61.4159 100.422 53.4797 103.562 40.5959Z" fill="#B150D1"/>
<path d="M90.8972 22.9133H69.8622C69.1443 22.9133 68.5624 23.5024 68.5624 24.2292V45.5229C68.5624 46.2497 69.1443 46.8388 69.8622 46.8388H90.8972C91.615 46.8388 92.197 46.2497 92.197 45.5229V24.2292C92.197 23.5024 91.615 22.9133 90.8972 22.9133Z" fill="white"/>
<path d="M75.6173 24.6727H70.3047V30.0537H75.6202L75.6173 24.6727ZM74.7997 29.226H71.1194V25.5005H74.7997V29.226Z" fill="#B150D1"/>
<path d="M73.8764 26.4349H72.0428V28.2911H73.8764V26.4349Z" fill="#B150D1"/>
<path d="M90.4944 24.6725H85.1788V30.0535H90.4944V24.6725ZM89.6767 29.2258H85.9965V25.5003H89.6767V29.2258Z" fill="#B150D1"/>
<path d="M88.7536 26.4349H86.92V28.2911H88.7536V26.4349Z" fill="#B150D1"/>
<path d="M70.3038 45.1149H75.6194V39.7332H70.3038V45.1149ZM71.1215 40.5617H74.7988V44.2872H71.1186L71.1215 40.5617Z" fill="#B150D1"/>
<path d="M73.8764 41.4966H72.0428V43.3528H73.8764V41.4966Z" fill="#B150D1"/>
<path d="M81.923 29.8297H83.0239V30.678H83.6985V29.8297V28.2448H83.0239H81.923H81.2048H80.1817V29.829H79.0779V29.8297V30.8544H80.1817V29.8297H81.2048V31.569H81.923V29.8297Z" fill="black"/>
<path d="M83.0237 26.7999H83.6983V25.3562V24.6725H83.0237H81.5968V25.3562H83.0237V26.7999Z" fill="black"/>
<path d="M78.5258 24.6725H77.096V25.9149H78.5258V24.6725Z" fill="black"/>
<path d="M89.594 31.5511H88.6681V32.6259H89.594V32.9523H87.748V34.0755H89.594V35.173H90.4951V34.0755V32.9574V31.5695V31.5511H89.594Z" fill="black"/>
<path d="M85.1068 39.2656V38.5908H83.3807V40.3073H85.1068V39.2656ZM84.4402 39.4068V39.6442H84.0473V39.2531H84.4402V39.4068Z" fill="black"/>
<path d="M78.5258 39.1892H77.096V40.6609H78.5258V39.1892Z" fill="black"/>
<path d="M76.3085 38.2367H77.4362H78.4579V37.0995H76.3085V38.2367Z" fill="black"/>
<path d="M78.5262 31.928V31.5693V30.6379H77.466V31.914H76.2954V31.928V32.9571H78.5262V31.928Z" fill="black"/>
<path d="M71.8251 34.0758H70.3016V35.1733H71.8251V34.0758Z" fill="black"/>
<path d="M72.2187 32.9559H71.6509V31.5695H70.3016V32.9573H71.648V33.5425H72.2187V32.9559Z" fill="black"/>
<path d="M81.9234 43.9393H81.2052V45.1154H81.9234H83.0243V43.1064H81.9234V43.9393Z" fill="black"/>
<path d="M72.1831 36.2098H70.3016V38.2358H72.1831V36.2098Z" fill="black"/>
<path d="M72.6948 38.2365H75.5188V37.0993H74.4143V36.2098H72.6948V38.2365ZM73.0578 36.9552H73.5909V37.4955H73.0578V36.9552Z" fill="black"/>
<path d="M77.2903 35.682H76.3085V36.2098V36.5715H77.2903V36.2098V35.682Z" fill="black"/>
<path d="M84.8245 35.7906H83.8674V36.6801H84.8245V35.7906Z" fill="black"/>
<path d="M90.4955 36.2098H89.5943V37.0993H90.4955V36.2098Z" fill="black"/>
<path d="M78.6689 29.4647H79.5461V28.207H78.6689H78.2317H77.096V29.4647H78.2317H78.6689Z" fill="black"/>
<path d="M78.5258 41.2725H77.096V42.3913H78.5258V41.2725Z" fill="black"/>
<path d="M83.0236 41.1074H81.9227V42.1953H83.0236V41.1074Z" fill="black"/>
<path d="M89.5944 42.1951V43.5815H87.9373V45.1149H89.5944H90.4955V42.1951V40.6616H89.5944V42.1951Z" fill="black"/>
<path d="M87.2345 32.0043H85.8613V32.9556H87.2345V32.0043Z" fill="black"/>
<path d="M85.4616 39.1896H87.0062V37.0997H85.4616H83.0239V36.2102V35.173H81.923V36.2102H81.2048V37.0997V38.2369V39.1896H80.1817V38.2369H79.0779V39.1896V40.662H80.1817V42.1954H81.2048V40.662H81.923V39.2638H83.0239V38.2369V38.1376H85.4616V38.2369V39.1896Z" fill="black"/>
<path d="M87.7327 39.1894V39.2151H88.9244V39.1894V38.011H87.7327V39.1894Z" fill="black"/>
<path d="M88.9282 40.0098H89.5948H89.7168V39.213H89.5948H88.9282V40.0098Z" fill="black"/>
<path d="M88.4798 40.6615V40.5681H85.7487V40.6615V42.1015H88.4798V40.6615Z" fill="black"/>
<path d="M87.1597 42.9611H85.8504V45.1149H87.1597V42.9611Z" fill="black"/>
<path d="M85.1538 41.511H83.4146V42.5776H85.1538V41.511Z" fill="black"/>
<path d="M85.1552 43.1162H84.562V43.7271H85.1552V43.1162Z" fill="black"/>
<path d="M85.1538 44.2343H83.4146V45.1142H85.1538V44.2343Z" fill="black"/>
<path d="M74.4141 32.9574H75.5186V31.5695V31.5511H74.4141V31.5695V32.9574Z" fill="black"/>
<path d="M81.923 34.0751H83.0232V35.1726H87.4869V34.0751H85.4624V31.5691H83.0239V32.957H81.2085V34.0751H81.923ZM84.5104 33.8545V33.2025H85.1545V33.8545H84.5104Z" fill="black"/>
<path d="M80.1817 32.957H81.2048V31.5691H80.1817H79.0779V32.957V34.0751H80.1817V32.957Z" fill="black"/>
<path d="M81.2048 25.9457H80.1817V24.6725H79.0779V27.7791H81.2048V25.9457Z" fill="black"/>
<path d="M81.2048 34.0758H80.1816V35.1733H79.0778V34.0758H78.526H75.5182H74.4137H72.1829V35.1733H74.4137V36.2106H75.5182V35.1733H78.526V36.2106H79.0778V37.1H80.1816V36.2106H81.2048V35.1733V34.0758Z" fill="black"/>
<path d="M78.3821 43.7903H77.096V45.1157H78.3821H78.5258H80.5504V43.1375H78.3821V43.7903Z" fill="black"/>
<path d="M82.4845 25.9776H81.6865V26.7855H82.4845V25.9776Z" fill="black"/>
<path d="M88.7588 35.1725V35.6937H87.7327V36.7338H88.761V35.6951H89.4029V35.1725V35.0431H88.7588V35.1725Z" fill="black"/>
<path d="M73.7893 32.9781H73.1038V33.672H73.7893V32.9781Z" fill="black"/>
<path d="M84.9303 30.337H84.2448V31.031H84.9303V30.337Z" fill="black"/>
<g clip-path="url(#clip2)">
<path d="M140.44 85.7943H118.296C117.537 85.7948 116.923 86.4098 116.923 87.1683V109.313C116.923 110.071 117.538 110.686 118.297 110.686H130.219V101.06H126.986V97.2921H130.219V94.5193C130.219 91.3038 132.182 89.5536 135.051 89.5536C136.425 89.5536 137.605 89.656 137.949 89.7017V93.0625H135.971C134.411 93.0625 134.109 93.804 134.109 94.8924V97.2921H137.84L137.354 101.06H134.109V110.686H140.44C141.199 110.686 141.814 110.071 141.814 109.313C141.814 109.312 141.814 109.312 141.814 109.312V87.1671C141.814 86.4089 141.199 85.7942 140.44 85.7943Z" fill="white"/>
</g>
<path d="M114.338 149.563C117.08 138.316 110.28 127.008 99.1517 124.307C88.0231 121.606 76.7792 128.534 74.0379 139.782C71.2965 151.029 78.0957 162.337 89.2244 165.038C100.353 167.739 111.597 160.811 114.338 149.563Z" fill="#B150D1"/>
<path d="M89.617 155.118C99.2927 155.118 104.584 147.323 104.584 140.564C104.584 140.343 104.579 140.122 104.569 139.903C105.596 139.181 106.489 138.28 107.193 137.254C106.25 137.662 105.236 137.936 104.172 138.06C105.258 137.426 106.092 136.424 106.485 135.23C105.469 135.816 104.343 136.242 103.145 136.472C102.185 135.478 100.818 134.856 99.3051 134.856C96.4003 134.856 94.0444 137.147 94.0444 139.97C94.0444 140.372 94.0907 140.762 94.1808 141.137C89.8089 140.923 85.932 138.888 83.3378 135.792C82.8862 136.548 82.6256 137.426 82.6256 138.363C82.6256 140.138 83.5543 141.705 84.9664 142.621C84.1034 142.595 83.2928 142.365 82.5841 141.982C82.5833 142.003 82.5833 142.024 82.5833 142.047C82.5833 144.524 84.3965 146.593 86.8038 147.061C86.3616 147.178 85.8964 147.241 85.4166 147.241C85.0782 147.241 84.7483 147.209 84.4279 147.149C85.0975 149.181 87.0396 150.66 89.342 150.702C87.5415 152.074 85.2734 152.892 82.8085 152.892C82.3845 152.892 81.9654 152.868 81.5536 152.821C83.8817 154.272 86.6462 155.119 89.6172 155.119" fill="white"/>
<defs>
<clipPath id="clip0">
<rect width="28.0829" height="28.0829" fill="white" transform="translate(32.3111 70.399)"/>
</clipPath>
<clipPath id="clip1">
<rect width="14.7052" height="14.7052" fill="white" transform="translate(49.4664 122.276)"/>
</clipPath>
<clipPath id="clip2">
<rect width="26.5511" height="26.5511" fill="white" transform="translate(116.142 84.1852)"/>
</clipPath>
</defs>
</svg>
