<svg width="138" height="63" viewBox="0 0 138 63" fill="none" xmlns="http://www.w3.org/2000/svg">
<path d="M27.2924 46.7507L27.2303 29.2611L18.6716 43.6497H15.6326L7.07384 29.6332V46.7507H0.747803V17.6013H6.3296L17.2451 35.7112L27.9746 17.6013H33.4944L33.5564 46.7507H27.2924Z" fill="white"/>
<path d="M63.0161 41.355V46.7507H40.4408V17.6013H62.4579V23.0591H47.139V29.3851H60.6593V34.6568H47.139V41.417H63.0161V41.355Z" fill="white"/>
<path d="M123.238 46.1304L117.842 38.3159H117.532H111.888V46.1304H105.438V18.1594H117.532C120.013 18.1594 122.183 18.5936 123.982 19.3998C125.781 20.2061 127.207 21.3845 128.199 22.935C129.192 24.4234 129.688 26.222 129.688 28.3307C129.688 30.4394 129.192 32.1759 128.199 33.7264C127.207 35.2149 125.781 36.3933 123.92 37.1996L130.184 46.1925H123.238V46.1304ZM121.563 24.7335C120.571 23.8653 119.082 23.4931 117.098 23.4931H111.826V33.2303H117.098C119.02 33.2303 120.509 32.7961 121.563 31.9279C122.556 31.0596 123.052 29.8812 123.052 28.3307C123.114 26.7802 122.618 25.5398 121.563 24.7335Z" fill="#9B27AF"/>
<path d="M101.717 43.7119L97.9957 40.4249C98.1817 40.1768 98.3678 39.8667 98.5539 39.5566C99.8563 37.3859 100.539 34.9051 100.539 32.1142C100.539 29.3853 99.8563 26.9045 98.5539 24.6718C97.2514 22.5011 95.3909 20.7645 93.0961 19.5241C90.8014 18.2837 88.1965 17.6635 85.2816 17.6635C82.3666 17.6635 79.7618 18.2837 77.405 19.5241C75.0483 20.7645 73.2497 22.5011 71.9473 24.6718C70.6449 26.8425 69.9626 29.3233 69.9626 32.1142C69.9626 34.8431 70.6449 37.3239 71.9473 39.5566C73.2497 41.7273 75.1103 43.4638 77.405 44.7042C79.7618 45.9446 82.3666 46.5648 85.2816 46.5648C88.1965 46.5648 90.8014 45.9446 93.0961 44.7042C93.4682 44.5182 93.8403 44.2701 94.2125 44.022L98.2438 47.5572L101.717 43.7119ZM85.2196 41.1071C83.545 41.1071 82.0565 40.735 80.7541 39.9907C79.4517 39.2465 78.3974 38.1921 77.5911 36.8277C76.8469 35.4633 76.4747 33.9128 76.4747 32.1762C76.4747 30.4396 76.8469 28.8891 77.5911 27.5247C78.3354 26.1603 79.3897 25.1059 80.7541 24.3617C82.0565 23.6174 83.607 23.2453 85.2196 23.2453C86.8941 23.2453 88.3826 23.6174 89.685 24.3617C90.9874 25.1059 92.0418 26.1603 92.848 27.5247C93.5923 28.8891 93.9644 30.4396 93.9644 32.1762C93.9644 33.6647 93.6543 34.9671 93.1581 36.1455L89.9331 33.2926L86.46 37.2618L89.623 39.9907C88.2585 40.735 86.8321 41.1071 85.2196 41.1071Z" fill="#9B27AF"/>
<path fill-rule="evenodd" clip-rule="evenodd" d="M70.463 5.81743H77.3427V0.855835H70.4585C67.7239 0.855835 65.4969 3.08289 65.4969 5.81743V12.7637H70.4585V5.8219C70.4591 5.82117 70.4598 5.82038 70.4606 5.81956C70.4614 5.81874 70.4622 5.81803 70.463 5.81743Z" fill="#9B27AF"/>
<path fill-rule="evenodd" clip-rule="evenodd" d="M125.221 0.855835H132.106C134.84 0.855835 137.067 3.08289 137.067 5.81743V12.7637H132.106V5.8219C132.105 5.82117 132.104 5.82038 132.103 5.81956C132.103 5.81874 132.102 5.81803 132.101 5.81743H125.221V0.855835Z" fill="#9B27AF"/>
<path fill-rule="evenodd" clip-rule="evenodd" d="M65.4969 58.0383V51.1541H70.4585V58.0339C70.4591 58.0346 70.4598 58.0354 70.4606 58.0362C70.4614 58.037 70.4622 58.0377 70.463 58.0383H77.3427V62.9999H70.4585C67.7239 62.9999 65.4969 60.7729 65.4969 58.0383Z" fill="#9B27AF"/>
<path fill-rule="evenodd" clip-rule="evenodd" d="M132.106 58.0339V51.1541H137.067V58.0383C137.067 60.7729 134.84 62.9999 132.106 62.9999H125.221V58.0383H132.101C132.102 58.0377 132.103 58.037 132.103 58.0362C132.104 58.0354 132.105 58.0346 132.106 58.0339ZM132.106 58.0384C132.106 58.0385 132.106 58.0387 132.106 58.0387C132.106 58.0387 132.106 58.0387 132.106 58.0387C132.106 58.0387 132.106 58.0386 132.106 58.0383C132.106 58.0383 132.106 58.0383 132.106 58.0383C132.106 58.0383 132.106 58.0383 132.106 58.0384Z" fill="#9B27AF"/>
</svg>
