<svg width="519" height="109" viewBox="0 0 519 109" fill="none" xmlns="http://www.w3.org/2000/svg">
<mask id="mask0" style="mask-type:alpha" maskUnits="userSpaceOnUse" x="0" y="0" width="519" height="109">
<rect width="519" height="109" rx="13" fill="#9B27AF"/>
</mask>
<g mask="url(#mask0)">
<g opacity="0.74">
<path d="M276.81 96.8955L275.048 98.1631L276.313 99.9282L278.075 98.6607L276.81 96.8955Z" fill="white" fill-opacity="0.43"/>
<path d="M270.761 95.9002L269 97.1677L270.265 98.9329L272.027 97.6653L270.761 95.9002Z" fill="white" fill-opacity="0.43"/>
<path d="M272.028 97.666L270.266 98.9336L271.532 100.699L273.293 99.4312L272.028 97.666Z" fill="white" fill-opacity="0.43"/>
<path d="M273.292 99.4283L271.53 100.696L272.796 102.461L274.557 101.193L273.292 99.4283Z" fill="white" fill-opacity="0.43"/>
<path d="M274.556 101.19L272.794 102.458L274.06 104.223L275.822 102.955L274.556 101.19Z" fill="white" fill-opacity="0.43"/>
<path d="M277.803 90.8362L276.042 92.1036L277.307 93.8686L279.069 92.6012L277.803 90.8362Z" fill="white" fill-opacity="0.43"/>
<path d="M279.068 92.5981L277.306 93.8655L278.571 95.6306L280.333 94.3632L279.068 92.5981Z" fill="white" fill-opacity="0.43"/>
<path d="M280.334 94.364L278.572 95.6316L279.838 97.3967L281.6 96.1292L280.334 94.364Z" fill="white" fill-opacity="0.43"/>
<path d="M281.598 96.1262L279.836 97.3936L281.102 99.1587L282.864 97.8913L281.598 96.1262Z" fill="white" fill-opacity="0.43"/>
<path d="M284.11 99.6567L282.845 97.8916L281.083 99.1591L282.348 100.924L284.11 99.6567Z" fill="white" fill-opacity="0.43"/>
<path d="M282.347 100.921L281.082 99.1555L279.32 100.423L280.585 102.188L282.347 100.921Z" fill="white" fill-opacity="0.43"/>
<path d="M280.587 102.188L279.322 100.423L277.56 101.691L278.825 103.456L280.587 102.188Z" fill="white" fill-opacity="0.43"/>
<path d="M278.827 103.456L277.562 101.691L275.8 102.959L277.065 104.724L278.827 103.456Z" fill="white" fill-opacity="0.43"/>
<path d="M277.292 93.8679L276.027 92.1028L274.265 93.3703L275.53 95.1355L277.292 93.8679Z" fill="white" fill-opacity="0.43"/>
<path d="M275.531 95.1358L274.266 93.3706L272.504 94.6381L273.77 96.4033L275.531 95.1358Z" fill="white" fill-opacity="0.43"/>
<path d="M273.768 96.3997L272.503 94.6345L270.741 95.9021L272.006 97.6672L273.768 96.3997Z" fill="white" fill-opacity="0.43"/>
<path d="M275.819 102.959L274.057 104.227L275.322 105.992L277.084 104.724L275.819 102.959Z" fill="white" fill-opacity="0.43"/>
<path d="M293.465 99.3098L291.703 100.577L292.969 102.343L294.731 101.075L293.465 99.3098Z" fill="white" fill-opacity="0.43"/>
<path d="M292.973 102.342L291.212 103.61L292.477 105.375L294.239 104.107L292.973 102.342Z" fill="white" fill-opacity="0.43"/>
<path d="M296.761 107.631L295 108.899L296.265 110.664L298.027 109.396L296.761 107.631Z" fill="white" fill-opacity="0.43"/>
<path d="M280.965 88.5593L279.203 89.8268L280.468 91.592L282.23 90.3245L280.965 88.5593Z" fill="white" fill-opacity="0.43"/>
<path d="M282.231 90.3252L280.47 91.5929L281.735 93.3582L283.496 92.0905L282.231 90.3252Z" fill="white" fill-opacity="0.43"/>
<path d="M286.925 99.4929L285.164 100.76L286.429 102.526L288.191 101.258L286.925 99.4929Z" fill="white" fill-opacity="0.43"/>
<path d="M296.491 99.8096L294.729 101.077L295.994 102.842L297.756 101.575L296.491 99.8096Z" fill="white" fill-opacity="0.43"/>
<path d="M300.286 105.1L298.524 106.367L299.789 108.132L301.551 106.865L300.286 105.1Z" fill="white" fill-opacity="0.43"/>
<path d="M297.755 101.572L295.993 102.839L297.258 104.604L299.02 103.337L297.755 101.572Z" fill="white" fill-opacity="0.43"/>
<path d="M300.781 102.071L299.019 103.339L300.284 105.104L302.046 103.836L300.781 102.071Z" fill="white" fill-opacity="0.43"/>
<path d="M305.051 104.316L306.813 103.048L305.547 101.283L303.786 102.55L305.051 104.316Z" fill="white" fill-opacity="0.43"/>
<path d="M302.025 103.817L303.787 102.55L302.521 100.784L300.76 102.052L302.025 103.817Z" fill="white" fill-opacity="0.43"/>
<path d="M298.231 98.5288L299.993 97.2612L298.728 95.4961L296.966 96.7636L298.231 98.5288Z" fill="white" fill-opacity="0.43"/>
<path d="M293.222 110.151L294.984 108.883L293.719 107.118L291.957 108.385L293.222 110.151Z" fill="white" fill-opacity="0.43"/>
<path d="M299.993 97.2624L301.755 95.9949L300.49 94.2297L298.728 95.4973L299.993 97.2624Z" fill="white" fill-opacity="0.43"/>
<path d="M282.729 105.157L284.491 103.889L283.226 102.124L281.464 103.392L282.729 105.157Z" fill="white" fill-opacity="0.43"/>
<path d="M277.443 108.956L279.205 107.689L277.94 105.924L276.178 107.191L277.443 108.956Z" fill="white" fill-opacity="0.43"/>
<path d="M297.851 94.2758L299.613 93.0083L298.348 91.2431L296.586 92.5107L297.851 94.2758Z" fill="white" fill-opacity="0.43"/>
<path d="M290.815 99.341L296.096 95.5413L294.831 93.7761L289.55 97.5759L290.815 99.341Z" fill="white" fill-opacity="0.43"/>
<path d="M300.761 102.052L302.522 100.784L301.257 99.0193L299.495 100.287L300.761 102.052Z" fill="white" fill-opacity="0.43"/>
<path d="M297.737 101.557L299.499 100.29L298.234 98.5246L296.472 99.7922L297.737 101.557Z" fill="white" fill-opacity="0.43"/>
<path d="M280.101 108.927L278.339 110.195L279.605 111.96L281.367 110.693L280.101 108.927Z" fill="white" fill-opacity="0.43"/>
<path d="M287.143 103.863L285.381 105.131L286.646 106.896L288.408 105.628L287.143 103.863Z" fill="white" fill-opacity="0.43"/>
<path d="M288.407 105.625L286.645 106.893L287.91 108.658L289.672 107.39L288.407 105.625Z" fill="white" fill-opacity="0.43"/>
<path d="M289.671 107.387L287.909 108.655L289.174 110.42L290.936 109.152L289.671 107.387Z" fill="white" fill-opacity="0.43"/>
<path d="M286.628 106.897L285.362 105.132L283.6 106.399L284.866 108.164L286.628 106.897Z" fill="white" fill-opacity="0.43"/>
<path d="M284.868 108.158L283.603 106.393L281.841 107.66L283.107 109.426L284.868 108.158Z" fill="white" fill-opacity="0.43"/>
<path d="M283.108 109.426L281.843 107.661L280.081 108.928L281.346 110.693L283.108 109.426Z" fill="white" fill-opacity="0.43"/>
<path d="M290.177 87.2822L288.415 88.5498L289.68 90.3149L291.442 89.0474L290.177 87.2822Z" fill="white" fill-opacity="0.43"/>
<path d="M284.129 86.2869L282.367 87.5543L283.632 89.3193L285.394 88.0519L284.129 86.2869Z" fill="white" fill-opacity="0.43"/>
<path d="M285.393 88.0488L283.631 89.3162L284.896 91.0813L286.658 89.8139L285.393 88.0488Z" fill="white" fill-opacity="0.43"/>
<path d="M286.657 89.8108L284.895 91.0783L286.16 92.8435L287.922 91.5759L286.657 89.8108Z" fill="white" fill-opacity="0.43"/>
<path d="M287.923 91.5766L286.161 92.8442L287.427 94.6093L289.189 93.3418L287.923 91.5766Z" fill="white" fill-opacity="0.43"/>
<path d="M291.171 81.2226L289.409 82.4902L290.674 84.2553L292.436 82.9878L291.171 81.2226Z" fill="white" fill-opacity="0.43"/>
<path d="M292.435 82.9846L290.673 84.2521L291.938 86.0173L293.7 84.7497L292.435 82.9846Z" fill="white" fill-opacity="0.43"/>
<path d="M293.699 84.7465L291.937 86.0141L293.202 87.7792L294.964 86.5117L293.699 84.7465Z" fill="white" fill-opacity="0.43"/>
<path d="M294.963 86.5085L293.201 87.7761L294.466 89.5412L296.228 88.2737L294.963 86.5085Z" fill="white" fill-opacity="0.43"/>
<path d="M297.474 90.0425L296.209 88.2773L294.447 89.5449L295.712 91.31L297.474 90.0425Z" fill="white" fill-opacity="0.43"/>
<path d="M295.715 91.3035L294.45 89.5383L292.688 90.8059L293.953 92.571L295.715 91.3035Z" fill="white" fill-opacity="0.43"/>
<path d="M293.955 92.5713L292.69 90.8062L290.928 92.0737L292.193 93.8388L293.955 92.5713Z" fill="white" fill-opacity="0.43"/>
<path d="M292.195 93.8394L290.929 92.0742L289.167 93.3418L290.433 95.1069L292.195 93.8394Z" fill="white" fill-opacity="0.43"/>
<path d="M290.66 84.2507L289.394 82.4856L287.632 83.7531L288.898 85.5183L290.66 84.2507Z" fill="white" fill-opacity="0.43"/>
<path d="M288.899 85.5186L287.634 83.7534L285.872 85.021L287.137 86.7861L288.899 85.5186Z" fill="white" fill-opacity="0.43"/>
<path d="M287.139 86.7866L285.874 85.0215L284.112 86.289L285.377 88.0542L287.139 86.7866Z" fill="white" fill-opacity="0.43"/>
<path d="M289.187 93.3386L287.425 94.6061L288.691 96.3713L290.453 95.1038L289.187 93.3386Z" fill="white" fill-opacity="0.43"/>
</g>
<g opacity="0.74">
<path d="M507.09 18.1506L507.955 19.5659L509.316 18.7587L508.451 17.3435L507.09 18.1506Z" fill="white" fill-opacity="0.43"/>
<path d="M506.009 22.5903L506.874 24.0053L508.235 23.1982L507.37 21.7832L506.009 22.5903Z" fill="white" fill-opacity="0.43"/>
<path d="M507.393 21.7483L508.258 23.1633L509.619 22.3561L508.754 20.9411L507.393 21.7483Z" fill="white" fill-opacity="0.43"/>
<path d="M508.774 20.9081L509.639 22.3232L511 21.5161L510.135 20.101L508.774 20.9081Z" fill="white" fill-opacity="0.43"/>
<path d="M510.155 20.0678L511.02 21.4828L512.381 20.6758L511.516 19.2607L510.155 20.0678Z" fill="white" fill-opacity="0.43"/>
<path d="M502.642 17.0705L503.507 18.4855L504.868 17.6784L504.003 16.2634L502.642 17.0705Z" fill="white" fill-opacity="0.43"/>
<path d="M504.023 16.2301L504.888 17.6452L506.249 16.8381L505.384 15.4231L504.023 16.2301Z" fill="white" fill-opacity="0.43"/>
<path d="M505.407 15.3886L506.272 16.8034L507.633 15.9963L506.768 14.5815L505.407 15.3886Z" fill="white" fill-opacity="0.43"/>
<path d="M506.788 14.548L507.653 15.9631L509.014 15.156L508.149 13.7409L506.788 14.548Z" fill="white" fill-opacity="0.43"/>
<path d="M509.532 12.914L508.171 13.7211L509.036 15.1359L510.397 14.3288L509.532 12.914Z" fill="white" fill-opacity="0.43"/>
<path d="M510.372 14.2959L509.011 15.103L509.876 16.5177L511.237 15.7106L510.372 14.2959Z" fill="white" fill-opacity="0.43"/>
<path d="M511.215 15.6758L509.854 16.4828L510.719 17.8976L512.08 17.0905L511.215 15.6758Z" fill="white" fill-opacity="0.43"/>
<path d="M512.058 17.0556L510.697 17.8627L511.562 19.2779L512.923 18.4708L512.058 17.0556Z" fill="white" fill-opacity="0.43"/>
<path d="M504.844 17.656L503.483 18.463L504.348 19.8781L505.71 19.071L504.844 17.656Z" fill="white" fill-opacity="0.43"/>
<path d="M505.687 19.0358L504.326 19.8429L505.192 21.2579L506.553 20.4509L505.687 19.0358Z" fill="white" fill-opacity="0.43"/>
<path d="M506.528 20.4177L505.166 21.2247L506.032 22.6398L507.393 21.8327L506.528 20.4177Z" fill="white" fill-opacity="0.43"/>
<path d="M511.541 19.229L512.406 20.6442L513.767 19.8371L512.902 18.4218L511.541 19.229Z" fill="white" fill-opacity="0.43"/>
<path d="M509.824 5.92583L510.68 7.32202L512.05 6.49744L511.194 5.10124L509.824 5.92583Z" fill="white" fill-opacity="0.43"/>
<path d="M512.05 6.46269L512.906 7.85889L514.276 7.0343L513.42 5.63811L512.05 6.46269Z" fill="white" fill-opacity="0.43"/>
<path d="M516.196 3.94535L517.051 5.34155L518.421 4.51692L517.565 3.12072L516.196 3.94535Z" fill="white" fill-opacity="0.43"/>
<path d="M501.129 14.6111L501.984 16.0073L503.354 15.1827L502.498 13.7865L501.129 14.6111Z" fill="white" fill-opacity="0.43"/>
<path d="M502.513 13.7691L503.368 15.1653L504.738 14.3407L503.882 12.9445L502.513 13.7691Z" fill="white" fill-opacity="0.43"/>
<path d="M509.592 10.7972L510.447 12.1934L511.817 11.3688L510.961 9.97258L509.592 10.7972Z" fill="white" fill-opacity="0.43"/>
<path d="M510.367 3.70512L511.222 5.10132L512.592 4.27674L511.736 2.88054L510.367 3.70512Z" fill="white" fill-opacity="0.43"/>
<path d="M514.513 1.18279L515.368 2.5791L516.738 1.75451L515.882 0.358191L514.513 1.18279Z" fill="white" fill-opacity="0.43"/>
<path d="M511.748 2.86477L512.603 4.26099L513.973 3.43637L513.118 2.04015L511.748 2.86477Z" fill="white" fill-opacity="0.43"/>
<path d="M512.29 0.644567L513.145 2.04077L514.515 1.2162L513.659 -0.180008L512.29 0.644567Z" fill="white" fill-opacity="0.43"/>
<path d="M513.656 -0.151898L512.8 -1.5481L511.431 -0.723514L512.286 0.672684L513.656 -0.151898Z" fill="white" fill-opacity="0.43"/>
<path d="M509.511 2.3696L508.656 0.973389L507.286 1.79795L508.142 3.19417L509.511 2.3696Z" fill="white" fill-opacity="0.43"/>
<path d="M517.867 6.74807L517.011 5.35181L515.642 6.17645L516.497 7.57271L517.867 6.74807Z" fill="white" fill-opacity="0.43"/>
<path d="M508.669 0.988742L507.814 -0.407471L506.444 0.417096L507.3 1.81331L508.669 0.988742Z" fill="white" fill-opacity="0.43"/>
<path d="M513.564 14.2663L512.708 12.8701L511.338 13.6947L512.194 15.0909L513.564 14.2663Z" fill="white" fill-opacity="0.43"/>
<path d="M516.09 18.4092L515.234 17.0129L513.864 17.8376L514.72 19.2338L516.09 18.4092Z" fill="white" fill-opacity="0.43"/>
<path d="M506.329 2.41213L505.473 1.01587L504.103 1.84051L504.959 3.23677L506.329 2.41213Z" fill="white" fill-opacity="0.43"/>
<path d="M509.697 7.93337L507.148 3.77246L505.788 4.59153L508.337 8.75244L509.697 7.93337Z" fill="white" fill-opacity="0.43"/>
<path d="M512.273 0.688193L511.417 -0.708008L510.047 0.116571L510.903 1.51277L512.273 0.688193Z" fill="white" fill-opacity="0.43"/>
<path d="M511.735 2.90743L510.879 1.51123L509.509 2.33581L510.365 3.73201L511.735 2.90743Z" fill="white" fill-opacity="0.43"/>
<path d="M517.3 11.9431L518.165 13.3583L519.526 12.5514L518.661 11.1362L517.3 11.9431Z" fill="white" fill-opacity="0.43"/>
<path d="M516.219 16.3829L517.084 17.7978L518.445 16.9908L517.58 15.5759L516.219 16.3829Z" fill="white" fill-opacity="0.43"/>
<path d="M517.6 15.5422L518.465 16.9575L519.826 16.1505L518.961 14.7353L517.6 15.5422Z" fill="white" fill-opacity="0.43"/>
<path d="M518.984 14.7008L519.849 16.1159L521.21 15.3088L520.345 13.8937L518.984 14.7008Z" fill="white" fill-opacity="0.43"/>
<path d="M512.852 10.8628L513.717 12.278L515.078 11.4711L514.213 10.0559L512.852 10.8628Z" fill="white" fill-opacity="0.43"/>
<path d="M514.233 10.0224L515.098 11.4377L516.459 10.6308L515.594 9.21556L514.233 10.0224Z" fill="white" fill-opacity="0.43"/>
<path d="M515.614 9.18262L516.479 10.5978L517.84 9.79093L516.975 8.37571L515.614 9.18262Z" fill="white" fill-opacity="0.43"/>
<path d="M516.997 8.34572L517.862 9.76068L519.223 8.9537L518.358 7.53874L516.997 8.34572Z" fill="white" fill-opacity="0.43"/>
<path d="M519.739 6.71137L518.378 7.51837L519.243 8.93344L520.604 8.12644L519.739 6.71137Z" fill="white" fill-opacity="0.43"/>
<path d="M515.055 11.4511L513.694 12.258L514.559 13.6732L515.92 12.8663L515.055 11.4511Z" fill="white" fill-opacity="0.43"/>
<path d="M515.893 12.8298L514.532 13.6367L515.397 15.0521L516.758 14.2451L515.893 12.8298Z" fill="white" fill-opacity="0.43"/>
<path d="M516.736 14.2097L515.375 15.0166L516.24 16.432L517.601 15.625L516.736 14.2097Z" fill="white" fill-opacity="0.43"/>
<path d="M500.698 7.67266L501.563 9.08789L502.924 8.281L502.059 6.86576L500.698 7.67266Z" fill="white" fill-opacity="0.43"/>
<path d="M499.617 12.1121L500.482 13.5273L501.843 12.7204L500.978 11.3052L499.617 12.1121Z" fill="white" fill-opacity="0.43"/>
<path d="M500.998 11.2723L501.863 12.6873L503.224 11.8803L502.359 10.4654L500.998 11.2723Z" fill="white" fill-opacity="0.43"/>
<path d="M502.379 10.4319L503.244 11.8472L504.605 11.0403L503.74 9.62504L502.379 10.4319Z" fill="white" fill-opacity="0.43"/>
<path d="M503.763 9.59021L504.628 11.0051L505.99 10.1982L505.124 8.7833L503.763 9.59021Z" fill="white" fill-opacity="0.43"/>
<path d="M496.25 6.59233L497.115 8.00757L498.477 7.20068L497.611 5.78544L496.25 6.59233Z" fill="white" fill-opacity="0.43"/>
<path d="M497.631 5.75208L498.496 7.16748L499.857 6.36051L498.992 4.94511L497.631 5.75208Z" fill="white" fill-opacity="0.43"/>
<path d="M499.012 4.91222L499.877 6.32715L501.239 5.52024L500.373 4.10532L499.012 4.91222Z" fill="white" fill-opacity="0.43"/>
<path d="M500.393 4.07182L501.258 5.48706L502.619 4.68017L501.754 3.26493L500.393 4.07182Z" fill="white" fill-opacity="0.43"/>
<path d="M503.139 2.43867L501.778 3.24554L502.643 4.66075L504.004 3.85387L503.139 2.43867Z" fill="white" fill-opacity="0.43"/>
<path d="M503.977 3.81738L502.616 4.62433L503.481 6.03969L504.842 5.23274L503.977 3.81738Z" fill="white" fill-opacity="0.43"/>
<path d="M504.82 5.19698L503.459 6.00385L504.325 7.41905L505.686 6.61219L504.82 5.19698Z" fill="white" fill-opacity="0.43"/>
<path d="M505.664 6.57686L504.303 7.38373L505.168 8.79894L506.529 7.99207L505.664 6.57686Z" fill="white" fill-opacity="0.43"/>
<path d="M498.45 7.17699L497.089 7.98395L497.954 9.39931L499.315 8.59235L498.45 7.17699Z" fill="white" fill-opacity="0.43"/>
<path d="M499.293 8.55684L497.932 9.36383L498.797 10.7789L500.158 9.97193L499.293 8.55684Z" fill="white" fill-opacity="0.43"/>
<path d="M500.136 9.93672L498.775 10.7437L499.64 12.1588L501.001 11.3518L500.136 9.93672Z" fill="white" fill-opacity="0.43"/>
<path d="M505.144 8.74957L506.009 10.1648L507.37 9.3579L506.505 7.94267L505.144 8.74957Z" fill="white" fill-opacity="0.43"/>
</g>
<g opacity="0.74">
<path d="M3.81656 94.9257L1.83044 93.003L-0.279947 95.1697L1.70617 97.0925L3.81656 94.9257Z" fill="white" fill-opacity="0.43"/>
<path d="M3.75353 86.7576L1.76736 84.8348L-0.34307 87.0016L1.64309 88.9244L3.75353 86.7576Z" fill="white" fill-opacity="0.43"/>
<path d="M1.72086 88.8213L-0.26532 86.8985L-2.37577 89.0654L-0.389587 90.9882L1.72086 88.8213Z" fill="white" fill-opacity="0.43"/>
<path d="M11.9988 94.8577L10.0126 92.9349L7.90217 95.1017L9.88833 97.0245L11.9988 94.8577Z" fill="white" fill-opacity="0.43"/>
<path d="M9.9713 96.9168L7.98514 94.994L5.87471 97.1608L7.86087 99.0836L9.9713 96.9168Z" fill="white" fill-opacity="0.43"/>
<path d="M7.93932 98.9805L5.95314 97.0577L3.84272 99.2245L5.8289 101.147L7.93932 98.9805Z" fill="white" fill-opacity="0.43"/>
<path d="M5.91173 101.04L3.92563 99.117L1.81525 101.284L3.80136 103.206L5.91173 101.04Z" fill="white" fill-opacity="0.43"/>
<path d="M1.76403 105.242L3.87439 103.076L1.88827 101.153L-0.222089 103.32L1.76403 105.242Z" fill="white" fill-opacity="0.43"/>
<path d="M-0.295332 103.214L1.815 101.047L-0.170925 99.1241L-2.28126 101.291L-0.295332 103.214Z" fill="white" fill-opacity="0.43"/>
<path d="M7.82108 94.977L9.93146 92.8102L7.94533 90.8875L5.83495 93.0542L7.82108 94.977Z" fill="white" fill-opacity="0.43"/>
<path d="M5.75714 92.9526L7.86755 90.7858L5.8814 88.8631L3.77098 91.0298L5.75714 92.9526Z" fill="white" fill-opacity="0.43"/>
<path d="M3.6984 90.9238L5.80884 88.757L3.82267 86.8343L1.71224 89.001L3.6984 90.9238Z" fill="white" fill-opacity="0.43"/>
<path d="M15.7041 98.539L13.6915 96.5703L11.6087 98.69L13.6214 100.659L15.7041 98.539Z" fill="white" fill-opacity="0.43"/>
<path d="M13.6714 100.603L11.6587 98.634L9.57598 100.754L11.5887 102.722L13.6714 100.603Z" fill="white" fill-opacity="0.43"/>
<path d="M2.69653 108.844L0.683868 106.875L-1.39886 108.995L0.613803 110.963L2.69653 108.844Z" fill="white" fill-opacity="0.43"/>
<path d="M19.4682 110.301L17.4821 108.378L15.3717 110.545L17.3578 112.468L19.4682 110.301Z" fill="white" fill-opacity="0.43"/>
<path d="M19.4057 102.133L17.4196 100.21L15.3092 102.377L17.2953 104.3L19.4057 102.133Z" fill="white" fill-opacity="0.43"/>
<path d="M17.3783 104.192L15.3921 102.269L13.2817 104.436L15.2678 106.359L17.3783 104.192Z" fill="white" fill-opacity="0.43"/>
<path d="M15.3508 106.251L13.3646 104.328L11.2541 106.495L13.2403 108.418L15.3508 106.251Z" fill="white" fill-opacity="0.43"/>
<path d="M13.3187 108.315L11.3326 106.392L9.22211 108.559L11.2083 110.481L13.3187 108.315Z" fill="white" fill-opacity="0.43"/>
<path d="M27.6511 110.233L25.6649 108.311L23.5545 110.477L25.5407 112.4L27.6511 110.233Z" fill="white" fill-opacity="0.43"/>
<path d="M23.4786 110.352L25.5889 108.186L23.6029 106.263L21.4925 108.43L23.4786 110.352Z" fill="white" fill-opacity="0.43"/>
<path d="M21.4147 108.328L23.525 106.161L21.5389 104.239L19.4285 106.406L21.4147 108.328Z" fill="white" fill-opacity="0.43"/>
<path d="M19.3508 106.304L21.4611 104.137L19.475 102.214L17.3647 104.381L19.3508 106.304Z" fill="white" fill-opacity="0.43"/>
<path d="M11.2912 110.374L9.3051 108.451L7.19469 110.618L9.18082 112.541L11.2912 110.374Z" fill="white" fill-opacity="0.43"/>
</g>
<g opacity="0.65">
<path d="M211.302 0.876291L210.711 0.052002L209.888 0.643923L210.479 1.46821L211.302 0.876291Z" fill="white" fill-opacity="0.5"/>
<path d="M209.301 -0.17888L208.71 -1.00317L207.888 -0.41125L208.478 0.413044L209.301 -0.17888Z" fill="white" fill-opacity="0.5"/>
<path d="M214.122 1.3409L213.531 0.516602L212.709 1.10854L213.299 1.93283L214.122 1.3409Z" fill="white" fill-opacity="0.5"/>
<path d="M213.303 1.93123L212.712 1.10693L211.889 1.69887L212.48 2.52316L213.303 1.93123Z" fill="white" fill-opacity="0.5"/>
<path d="M212.481 2.51766L211.89 1.69336L211.067 2.28531L211.658 3.10961L212.481 2.51766Z" fill="white" fill-opacity="0.5"/>
<path d="M211.657 3.11091L211.067 2.28662L210.244 2.87854L210.835 3.70283L211.657 3.11091Z" fill="white" fill-opacity="0.5"/>
<path d="M210.015 4.28299L210.838 3.69116L210.247 2.86695L209.424 3.45878L210.015 4.28299Z" fill="white" fill-opacity="0.5"/>
<path d="M209.423 3.46072L210.246 2.86877L209.655 2.04447L208.833 2.63641L209.423 3.46072Z" fill="white" fill-opacity="0.5"/>
<path d="M208.836 2.63551L209.659 2.0437L209.068 1.2195L208.245 1.81132L208.836 2.63551Z" fill="white" fill-opacity="0.5"/>
<path d="M208.247 1.81716L209.07 1.22534L208.479 0.401133L207.657 0.992951L208.247 1.81716Z" fill="white" fill-opacity="0.5"/>
<path d="M212.712 1.09884L213.535 0.506897L212.944 -0.317406L212.122 0.27454L212.712 1.09884Z" fill="white" fill-opacity="0.5"/>
<path d="M212.121 0.276575L212.944 -0.315369L212.353 -1.13967L211.53 -0.547722L212.121 0.276575Z" fill="white" fill-opacity="0.5"/>
<path d="M208.482 0.411459L207.891 -0.412842L207.068 0.179096L207.659 1.0034L208.482 0.411459Z" fill="white" fill-opacity="0.5"/>
<path d="M210.177 8.65674L209.586 7.83252L208.763 8.42434L209.354 9.24856L210.177 8.65674Z" fill="white" fill-opacity="0.5"/>
<path d="M208.768 8.42631L208.177 7.60205L207.354 8.19393L207.945 9.01819L208.768 8.42631Z" fill="white" fill-opacity="0.5"/>
<path d="M206.303 10.1964L205.712 9.37207L204.89 9.96401L205.48 10.7883L206.303 10.1964Z" fill="white" fill-opacity="0.5"/>
<path d="M215.182 2.81575L214.591 1.99146L213.769 2.58339L214.359 3.40768L215.182 2.81575Z" fill="white" fill-opacity="0.5"/>
<path d="M214.359 3.40902L213.768 2.58472L212.945 3.17664L213.536 4.00095L214.359 3.40902Z" fill="white" fill-opacity="0.5"/>
<path d="M210.091 5.60115L209.5 4.77686L208.677 5.36878L209.268 6.19307L210.091 5.60115Z" fill="white" fill-opacity="0.5"/>
<path d="M209.943 10.0708L209.352 9.24658L208.529 9.8384L209.12 10.6626L209.943 10.0708Z" fill="white" fill-opacity="0.5"/>
<path d="M207.481 11.8447L206.89 11.0205L206.067 11.6123L206.658 12.4365L207.481 11.8447Z" fill="white" fill-opacity="0.5"/>
<path d="M209.123 10.6611L208.532 9.83691L207.71 10.4287L208.3 11.2529L209.123 10.6611Z" fill="white" fill-opacity="0.5"/>
<path d="M208.893 12.0723L208.302 11.248L207.48 11.8399L208.071 12.6641L208.893 12.0723Z" fill="white" fill-opacity="0.5"/>
<path d="M207.845 14.0653L208.436 14.8896L209.258 14.2977L208.668 13.4734L207.845 14.0653Z" fill="white" fill-opacity="0.5"/>
<path d="M208.078 12.6499L208.669 13.4741L209.492 12.8823L208.901 12.0581L208.078 12.6499Z" fill="white" fill-opacity="0.5"/>
<path d="M210.542 10.88L211.133 11.7043L211.956 11.1124L211.365 10.2881L210.542 10.88Z" fill="white" fill-opacity="0.5"/>
<path d="M205.13 8.53907L205.721 9.36328L206.544 8.77146L205.953 7.94724L205.13 8.53907Z" fill="white" fill-opacity="0.5"/>
<path d="M211.132 11.7045L211.723 12.5288L212.546 11.9369L211.955 11.1126L211.132 11.7045Z" fill="white" fill-opacity="0.5"/>
<path d="M207.456 3.63664L208.047 4.46094L208.869 3.86899L208.279 3.04469L207.456 3.63664Z" fill="white" fill-opacity="0.5"/>
<path d="M205.685 1.17033L206.276 1.99463L207.099 1.40271L206.508 0.578413L205.685 1.17033Z" fill="white" fill-opacity="0.5"/>
<path d="M212.521 10.7016L213.112 11.5259L213.934 10.9339L213.344 10.1097L212.521 10.7016Z" fill="white" fill-opacity="0.5"/>
<path d="M210.162 7.41508L211.932 9.88379L212.755 9.29193L210.985 6.82322L210.162 7.41508Z" fill="white" fill-opacity="0.5"/>
<path d="M208.897 12.0619L209.488 12.8862L210.31 12.2943L209.72 11.47L208.897 12.0619Z" fill="white" fill-opacity="0.5"/>
<path d="M209.13 10.6465L209.721 11.4707L210.543 10.8789L209.952 10.0547L209.13 10.6465Z" fill="white" fill-opacity="0.5"/>
<path d="M205.237 5.23566L204.646 4.41138L203.824 5.00329L204.414 5.82758L205.237 5.23566Z" fill="white" fill-opacity="0.5"/>
<path d="M205.701 2.41023L205.11 1.58594L204.287 2.17787L204.878 3.00216L205.701 2.41023Z" fill="white" fill-opacity="0.5"/>
<path d="M204.878 3.0035L204.287 2.1792L203.464 2.77112L204.055 3.59542L204.878 3.0035Z" fill="white" fill-opacity="0.5"/>
<path d="M204.059 3.59399L203.468 2.76978L202.645 3.3616L203.236 4.18581L204.059 3.59399Z" fill="white" fill-opacity="0.5"/>
<path d="M203.239 4.18441L202.648 3.36011L201.826 3.95204L202.416 4.77634L203.239 4.18441Z" fill="white" fill-opacity="0.5"/>
<path d="M208.057 5.70028L207.466 4.87598L206.644 5.46791L207.234 6.29221L208.057 5.70028Z" fill="white" fill-opacity="0.5"/>
<path d="M207.238 6.29059L206.647 5.46631L205.824 6.05824L206.415 6.88252L207.238 6.29059Z" fill="white" fill-opacity="0.5"/>
<path d="M206.415 6.88383L205.824 6.05957L205.001 6.65145L205.592 7.47571L206.415 6.88383Z" fill="white" fill-opacity="0.5"/>
<path d="M205.595 7.47436L205.005 6.65015L204.182 7.24196L204.773 8.06618L205.595 7.47436Z" fill="white" fill-opacity="0.5"/>
<path d="M203.95 8.64864L204.772 8.0567L204.182 7.23241L203.359 7.82435L203.95 8.64864Z" fill="white" fill-opacity="0.5"/>
<path d="M203.362 7.82351L204.185 7.23157L203.594 6.40726L202.772 6.99921L203.362 7.82351Z" fill="white" fill-opacity="0.5"/>
<path d="M202.771 7.00098L203.594 6.40918L203.003 5.58496L202.18 6.17677L202.771 7.00098Z" fill="white" fill-opacity="0.5"/>
<path d="M202.179 6.17873L203.002 5.58691L202.411 4.7627L201.589 5.35452L202.179 6.17873Z" fill="white" fill-opacity="0.5"/>
<path d="M206.644 5.46047L207.467 4.86853L206.876 4.04422L206.054 4.63617L206.644 5.46047Z" fill="white" fill-opacity="0.5"/>
<path d="M206.053 4.63797L206.876 4.04614L206.285 3.22193L205.462 3.81376L206.053 4.63797Z" fill="white" fill-opacity="0.5"/>
<path d="M205.466 3.81295L206.288 3.22101L205.697 2.39671L204.875 2.98865L205.466 3.81295Z" fill="white" fill-opacity="0.5"/>
<path d="M202.413 4.77375L201.822 3.94946L201 4.54139L201.59 5.36568L202.413 4.77375Z" fill="white" fill-opacity="0.5"/>
<path d="M215.777 7.12256L215.187 6.29834L214.364 6.89017L214.955 7.71439L215.777 7.12256Z" fill="white" fill-opacity="0.5"/>
<path d="M216.241 4.29739L215.65 3.47314L214.828 4.06501L215.418 4.88925L216.241 4.29739Z" fill="white" fill-opacity="0.5"/>
<path d="M215.419 4.88379L214.828 4.05957L214.005 4.65139L214.596 5.47561L215.419 4.88379Z" fill="white" fill-opacity="0.5"/>
<path d="M214.6 5.47412L214.009 4.6499L213.186 5.24172L213.777 6.06594L214.6 5.47412Z" fill="white" fill-opacity="0.5"/>
<path d="M213.776 6.06746L213.186 5.24316L212.363 5.8351L212.954 6.6594L213.776 6.06746Z" fill="white" fill-opacity="0.5"/>
<path d="M218.602 7.58448L218.011 6.76025L217.188 7.35208L217.779 8.17631L218.602 7.58448Z" fill="white" fill-opacity="0.5"/>
<path d="M217.778 8.17773L217.187 7.35352L216.364 7.94533L216.955 8.76954L217.778 8.17773Z" fill="white" fill-opacity="0.5"/>
<path d="M216.959 8.76806L216.368 7.94385L215.545 8.53568L216.136 9.3599L216.959 8.76806Z" fill="white" fill-opacity="0.5"/>
<path d="M216.137 9.35449L215.546 8.53027L214.723 9.1221L215.314 9.94631L216.137 9.35449Z" fill="white" fill-opacity="0.5"/>
<path d="M214.491 10.5271L215.313 9.9353L214.722 9.1111L213.9 9.70292L214.491 10.5271Z" fill="white" fill-opacity="0.5"/>
<path d="M213.899 9.70484L214.722 9.11304L214.131 8.28882L213.308 8.88062L213.899 9.70484Z" fill="white" fill-opacity="0.5"/>
<path d="M213.315 8.88381L214.137 8.29187L213.547 7.46757L212.724 8.05951L213.315 8.88381Z" fill="white" fill-opacity="0.5"/>
<path d="M212.723 8.06155L213.546 7.4696L212.955 6.64529L212.133 7.23724L212.723 8.06155Z" fill="white" fill-opacity="0.5"/>
<path d="M217.184 7.34591L218.007 6.75397L217.416 5.92968L216.593 6.52162L217.184 7.34591Z" fill="white" fill-opacity="0.5"/>
<path d="M216.597 6.52076L217.42 5.92883L216.829 5.10453L216.006 5.69646L216.597 6.52076Z" fill="white" fill-opacity="0.5"/>
<path d="M216.005 5.6985L216.828 5.10657L216.237 4.28226L215.415 4.87419L216.005 5.6985Z" fill="white" fill-opacity="0.5"/>
<path d="M212.957 6.6578L212.366 5.8335L211.544 6.42543L212.135 7.24973L212.957 6.6578Z" fill="white" fill-opacity="0.5"/>
</g>
</g>
</svg>
