<svg width="75" height="73" viewBox="0 0 75 73" fill="none" xmlns="http://www.w3.org/2000/svg">
<path d="M30.9199 13H29.0399V14.88H30.9199V13Z" fill="white"/>
<path d="M32.8001 13H30.9201V14.88H32.8001V13Z" fill="white"/>
<path d="M42.1999 13H40.3199V14.88H42.1999V13Z" fill="white"/>
<path d="M44.0801 13H42.2001V14.88H44.0801V13Z" fill="white"/>
<path d="M32.8001 14.8799H30.9201V16.7599H32.8001V14.8799Z" fill="white"/>
<path d="M38.4399 14.8799H36.5599V16.7599H38.4399V14.8799Z" fill="white"/>
<path d="M45.9599 14.8799H44.0799V16.7599H45.9599V14.8799Z" fill="white"/>
<path d="M34.6799 16.76H32.7999V18.64H34.6799V16.76Z" fill="white"/>
<path d="M36.5601 16.76H34.6801V18.64H36.5601V16.76Z" fill="white"/>
<path d="M38.4399 16.76H36.5599V18.64H38.4399V16.76Z" fill="white"/>
<path d="M42.1999 16.76H40.3199V18.64H42.1999V16.76Z" fill="white"/>
<path d="M44.0801 16.76H42.2001V18.64H44.0801V16.76Z" fill="white"/>
<path d="M30.9199 18.6401H29.0399V20.5201H30.9199V18.6401Z" fill="white"/>
<path d="M34.6799 18.6401H32.7999V20.5201H34.6799V18.6401Z" fill="white"/>
<path d="M36.5601 18.6401H34.6801V20.5201H36.5601V18.6401Z" fill="white"/>
<path d="M45.9599 18.6401H44.0799V20.5201H45.9599V18.6401Z" fill="white"/>
<path d="M30.9199 20.52H29.0399V22.4H30.9199V20.52Z" fill="white"/>
<path d="M32.8001 20.52H30.9201V22.4H32.8001V20.52Z" fill="white"/>
<path d="M34.6799 20.52H32.7999V22.4H34.6799V20.52Z" fill="white"/>
<path d="M36.5601 20.52H34.6801V22.4H36.5601V20.52Z" fill="white"/>
<path d="M38.4399 20.52H36.5599V22.4H38.4399V20.52Z" fill="white"/>
<path d="M42.1999 20.52H40.3199V22.4H42.1999V20.52Z" fill="white"/>
<path d="M44.0801 20.52H42.2001V22.4H44.0801V20.52Z" fill="white"/>
<path d="M45.9599 20.52H44.0799V22.4H45.9599V20.52Z" fill="white"/>
<path d="M30.9199 22.3999H29.0399V24.2799H30.9199V22.3999Z" fill="white"/>
<path d="M32.8001 22.3999H30.9201V24.2799H32.8001V22.3999Z" fill="white"/>
<path d="M38.4399 22.3999H36.5599V24.2799H38.4399V22.3999Z" fill="white"/>
<path d="M45.9599 22.3999H44.0799V24.2799H45.9599V22.3999Z" fill="white"/>
<path d="M30.9199 24.28H29.0399V26.16H30.9199V24.28Z" fill="white"/>
<path d="M34.6799 24.28H32.7999V26.16H34.6799V24.28Z" fill="white"/>
<path d="M38.4399 24.28H36.5599V26.16H38.4399V24.28Z" fill="white"/>
<path d="M42.1999 24.28H40.3199V26.16H42.1999V24.28Z" fill="white"/>
<path d="M45.9599 24.28H44.0799V26.16H45.9599V24.28Z" fill="white"/>
<path d="M30.9199 26.1602H29.0399V28.0402H30.9199V26.1602Z" fill="white"/>
<path d="M34.6799 26.1602H32.7999V28.0402H34.6799V26.1602Z" fill="white"/>
<path d="M36.5601 26.1602H34.6801V28.0402H36.5601V26.1602Z" fill="white"/>
<path d="M38.4399 26.1602H36.5599V28.0402H38.4399V26.1602Z" fill="white"/>
<path d="M40.3201 26.1602H38.4401V28.0402H40.3201V26.1602Z" fill="white"/>
<path d="M15.88 28.04H14V29.92H15.88V28.04Z" fill="white"/>
<path d="M23.4 28.04H21.52V29.92H23.4V28.04Z" fill="white"/>
<path d="M27.16 28.04H25.28V29.92H27.16V28.04Z" fill="white"/>
<path d="M29.0401 28.04H27.1601V29.92H29.0401V28.04Z" fill="white"/>
<path d="M30.9199 28.04H29.0399V29.92H30.9199V28.04Z" fill="white"/>
<path d="M32.8001 28.04H30.9201V29.92H32.8001V28.04Z" fill="white"/>
<path d="M34.6799 28.04H32.7999V29.92H34.6799V28.04Z" fill="white"/>
<path d="M36.5601 28.04H34.6801V29.92H36.5601V28.04Z" fill="white"/>
<path d="M40.3201 28.04H38.4401V29.92H40.3201V28.04Z" fill="white"/>
<path d="M44.0801 28.04H42.2001V29.92H44.0801V28.04Z" fill="white"/>
<path d="M47.8401 28.04H45.9601V29.92H47.8401V28.04Z" fill="white"/>
<path d="M49.7199 28.04H47.8399V29.92H49.7199V28.04Z" fill="white"/>
<path d="M51.6 28.04H49.72V29.92H51.6V28.04Z" fill="white"/>
<path d="M53.4799 28.04H51.5999V29.92H53.4799V28.04Z" fill="white"/>
<path d="M55.36 28.04H53.48V29.92H55.36V28.04Z" fill="white"/>
<path d="M60.9999 28.04H59.1199V29.92H60.9999V28.04Z" fill="white"/>
<path d="M17.7601 29.9199H15.8801V31.7999H17.7601V29.9199Z" fill="white"/>
<path d="M19.64 29.9199H17.76V31.7999H19.64V29.9199Z" fill="white"/>
<path d="M23.4 29.9199H21.52V31.7999H23.4V29.9199Z" fill="white"/>
<path d="M29.0401 29.9199H27.1601V31.7999H29.0401V29.9199Z" fill="white"/>
<path d="M38.4399 29.9199H36.5599V31.7999H38.4399V29.9199Z" fill="white"/>
<path d="M40.3201 29.9199H38.4401V31.7999H40.3201V29.9199Z" fill="white"/>
<path d="M42.1999 29.9199H40.3199V31.7999H42.1999V29.9199Z" fill="white"/>
<path d="M44.0801 29.9199H42.2001V31.7999H44.0801V29.9199Z" fill="white"/>
<path d="M45.9599 29.9199H44.0799V31.7999H45.9599V29.9199Z" fill="white"/>
<path d="M53.4799 29.9199H51.5999V31.7999H53.4799V29.9199Z" fill="white"/>
<path d="M55.36 29.9199H53.48V31.7999H55.36V29.9199Z" fill="white"/>
<path d="M59.12 29.9199H57.24V31.7999H59.12V29.9199Z" fill="white"/>
<path d="M19.64 31.8H17.76V33.68H19.64V31.8Z" fill="white"/>
<path d="M21.5198 31.8H19.6398V33.68H21.5198V31.8Z" fill="white"/>
<path d="M25.2801 31.8H23.4001V33.68H25.2801V31.8Z" fill="white"/>
<path d="M27.16 31.8H25.28V33.68H27.16V31.8Z" fill="white"/>
<path d="M29.0401 31.8H27.1601V33.68H29.0401V31.8Z" fill="white"/>
<path d="M30.9199 31.8H29.0399V33.68H30.9199V31.8Z" fill="white"/>
<path d="M36.5601 31.8H34.6801V33.68H36.5601V31.8Z" fill="white"/>
<path d="M44.0801 31.8H42.2001V33.68H44.0801V31.8Z" fill="white"/>
<path d="M51.6 31.8H49.72V33.68H51.6V31.8Z" fill="white"/>
<path d="M55.36 31.8H53.48V33.68H55.36V31.8Z" fill="white"/>
<path d="M57.2402 31.8H55.3602V33.68H57.2402V31.8Z" fill="white"/>
<path d="M17.7601 33.6802H15.8801V35.5602H17.7601V33.6802Z" fill="white"/>
<path d="M21.5198 33.6802H19.6398V35.5602H21.5198V33.6802Z" fill="white"/>
<path d="M34.6799 33.6802H32.7999V35.5602H34.6799V33.6802Z" fill="white"/>
<path d="M38.4399 33.6802H36.5599V35.5602H38.4399V33.6802Z" fill="white"/>
<path d="M42.1999 33.6802H40.3199V35.5602H42.1999V33.6802Z" fill="white"/>
<path d="M45.9599 33.6802H44.0799V35.5602H45.9599V33.6802Z" fill="white"/>
<path d="M51.6 33.6802H49.72V35.5602H51.6V33.6802Z" fill="white"/>
<path d="M53.4799 33.6802H51.5999V35.5602H53.4799V33.6802Z" fill="white"/>
<path d="M57.2402 33.6802H55.3602V35.5602H57.2402V33.6802Z" fill="white"/>
<path d="M59.12 33.6802H57.24V35.5602H59.12V33.6802Z" fill="white"/>
<path d="M15.88 35.5601H14V37.4401H15.88V35.5601Z" fill="white"/>
<path d="M27.16 35.5601H25.28V37.4401H27.16V35.5601Z" fill="white"/>
<path d="M29.0401 35.5601H27.1601V37.4401H29.0401V35.5601Z" fill="white"/>
<path d="M30.9199 35.5601H29.0399V37.4401H30.9199V35.5601Z" fill="white"/>
<path d="M34.6799 35.5601H32.7999V37.4401H34.6799V35.5601Z" fill="white"/>
<path d="M36.5601 35.5601H34.6801V37.4401H36.5601V35.5601Z" fill="white"/>
<path d="M40.3201 35.5601H38.4401V37.4401H40.3201V35.5601Z" fill="white"/>
<path d="M42.1999 35.5601H40.3199V37.4401H42.1999V35.5601Z" fill="white"/>
<path d="M49.7199 35.5601H47.8399V37.4401H49.7199V35.5601Z" fill="white"/>
<path d="M51.6 35.5601H49.72V37.4401H51.6V35.5601Z" fill="white"/>
<path d="M55.36 35.5601H53.48V37.4401H55.36V35.5601Z" fill="white"/>
<path d="M57.2402 35.5601H55.3602V37.4401H57.2402V35.5601Z" fill="white"/>
<path d="M59.12 35.5601H57.24V37.4401H59.12V35.5601Z" fill="white"/>
<path d="M60.9999 35.5601H59.1199V37.4401H60.9999V35.5601Z" fill="white"/>
<path d="M15.88 37.4399H14V39.3199H15.88V37.4399Z" fill="white"/>
<path d="M17.7601 37.4399H15.8801V39.3199H17.7601V37.4399Z" fill="white"/>
<path d="M19.64 37.4399H17.76V39.3199H19.64V37.4399Z" fill="white"/>
<path d="M21.5198 37.4399H19.6398V39.3199H21.5198V37.4399Z" fill="white"/>
<path d="M23.4 37.4399H21.52V39.3199H23.4V37.4399Z" fill="white"/>
<path d="M25.2801 37.4399H23.4001V39.3199H25.2801V37.4399Z" fill="white"/>
<path d="M29.0401 37.4399H27.1601V39.3199H29.0401V37.4399Z" fill="white"/>
<path d="M32.8001 37.4399H30.9201V39.3199H32.8001V37.4399Z" fill="white"/>
<path d="M34.6799 37.4399H32.7999V39.3199H34.6799V37.4399Z" fill="white"/>
<path d="M38.4399 37.4399H36.5599V39.3199H38.4399V37.4399Z" fill="white"/>
<path d="M44.0801 37.4399H42.2001V39.3199H44.0801V37.4399Z" fill="white"/>
<path d="M45.9599 37.4399H44.0799V39.3199H45.9599V37.4399Z" fill="white"/>
<path d="M53.4799 37.4399H51.5999V39.3199H53.4799V37.4399Z" fill="white"/>
<path d="M59.12 37.4399H57.24V39.3199H59.12V37.4399Z" fill="white"/>
<path d="M19.64 39.3198H17.76V41.1998H19.64V39.3198Z" fill="white"/>
<path d="M21.5198 39.3198H19.6398V41.1998H21.5198V39.3198Z" fill="white"/>
<path d="M23.4 39.3198H21.52V41.1998H23.4V39.3198Z" fill="white"/>
<path d="M25.2801 39.3198H23.4001V41.1998H25.2801V39.3198Z" fill="white"/>
<path d="M27.16 39.3198H25.28V41.1998H27.16V39.3198Z" fill="white"/>
<path d="M30.9199 39.3198H29.0399V41.1998H30.9199V39.3198Z" fill="white"/>
<path d="M32.8001 39.3198H30.9201V41.1998H32.8001V39.3198Z" fill="white"/>
<path d="M36.5601 39.3198H34.6801V41.1998H36.5601V39.3198Z" fill="white"/>
<path d="M38.4399 39.3198H36.5599V41.1998H38.4399V39.3198Z" fill="white"/>
<path d="M40.3201 39.3198H38.4401V41.1998H40.3201V39.3198Z" fill="white"/>
<path d="M42.1999 39.3198H40.3199V41.1998H42.1999V39.3198Z" fill="white"/>
<path d="M44.0801 39.3198H42.2001V41.1998H44.0801V39.3198Z" fill="white"/>
<path d="M45.9599 39.3198H44.0799V41.1998H45.9599V39.3198Z" fill="white"/>
<path d="M49.7199 39.3198H47.8399V41.1998H49.7199V39.3198Z" fill="white"/>
<path d="M51.6 39.3198H49.72V41.1998H51.6V39.3198Z" fill="white"/>
<path d="M53.4799 39.3198H51.5999V41.1998H53.4799V39.3198Z" fill="white"/>
<path d="M55.36 39.3198H53.48V41.1998H55.36V39.3198Z" fill="white"/>
<path d="M57.2402 39.3198H55.3602V41.1998H57.2402V39.3198Z" fill="white"/>
<path d="M19.64 41.2H17.76V43.08H19.64V41.2Z" fill="white"/>
<path d="M21.5198 41.2H19.6398V43.08H21.5198V41.2Z" fill="white"/>
<path d="M29.0401 41.2H27.1601V43.08H29.0401V41.2Z" fill="white"/>
<path d="M34.6799 41.2H32.7999V43.08H34.6799V41.2Z" fill="white"/>
<path d="M36.5601 41.2H34.6801V43.08H36.5601V41.2Z" fill="white"/>
<path d="M40.3201 41.2H38.4401V43.08H40.3201V41.2Z" fill="white"/>
<path d="M51.6 41.2H49.72V43.08H51.6V41.2Z" fill="white"/>
<path d="M53.4799 41.2H51.5999V43.08H53.4799V41.2Z" fill="white"/>
<path d="M57.2402 41.2H55.3602V43.08H57.2402V41.2Z" fill="white"/>
<path d="M59.12 41.2H57.24V43.08H59.12V41.2Z" fill="white"/>
<path d="M15.88 43.0801H14V44.9601H15.88V43.0801Z" fill="white"/>
<path d="M17.7601 43.0801H15.8801V44.9601H17.7601V43.0801Z" fill="white"/>
<path d="M19.64 43.0801H17.76V44.9601H19.64V43.0801Z" fill="white"/>
<path d="M21.5198 43.0801H19.6398V44.9601H21.5198V43.0801Z" fill="white"/>
<path d="M23.4 43.0801H21.52V44.9601H23.4V43.0801Z" fill="white"/>
<path d="M25.2801 43.0801H23.4001V44.9601H25.2801V43.0801Z" fill="white"/>
<path d="M27.16 43.0801H25.28V44.9601H27.16V43.0801Z" fill="white"/>
<path d="M38.4399 43.0801H36.5599V44.9601H38.4399V43.0801Z" fill="white"/>
<path d="M40.3201 43.0801H38.4401V44.9601H40.3201V43.0801Z" fill="white"/>
<path d="M44.0801 43.0801H42.2001V44.9601H44.0801V43.0801Z" fill="white"/>
<path d="M45.9599 43.0801H44.0799V44.9601H45.9599V43.0801Z" fill="white"/>
<path d="M47.8401 43.0801H45.9601V44.9601H47.8401V43.0801Z" fill="white"/>
<path d="M49.7199 43.0801H47.8399V44.9601H49.7199V43.0801Z" fill="white"/>
<path d="M51.6 43.0801H49.72V44.9601H51.6V43.0801Z" fill="white"/>
<path d="M53.4799 43.0801H51.5999V44.9601H53.4799V43.0801Z" fill="white"/>
<path d="M55.36 43.0801H53.48V44.9601H55.36V43.0801Z" fill="white"/>
<path d="M57.2402 43.0801H55.3602V44.9601H57.2402V43.0801Z" fill="white"/>
<path d="M30.9199 44.96H29.0399V46.84H30.9199V44.96Z" fill="white"/>
<path d="M32.8001 44.96H30.9201V46.84H32.8001V44.96Z" fill="white"/>
<path d="M34.6799 44.96H32.7999V46.84H34.6799V44.96Z" fill="white"/>
<path d="M40.3201 44.96H38.4401V46.84H40.3201V44.96Z" fill="white"/>
<path d="M42.1999 44.96H40.3199V46.84H42.1999V44.96Z" fill="white"/>
<path d="M45.9599 44.96H44.0799V46.84H45.9599V44.96Z" fill="white"/>
<path d="M53.4799 44.96H51.5999V46.84H53.4799V44.96Z" fill="white"/>
<path d="M30.9199 46.8398H29.0399V48.7198H30.9199V46.8398Z" fill="white"/>
<path d="M32.8001 46.8398H30.9201V48.7198H32.8001V46.8398Z" fill="white"/>
<path d="M45.9599 46.8398H44.0799V48.7198H45.9599V46.8398Z" fill="white"/>
<path d="M49.7199 46.8398H47.8399V48.7198H49.7199V46.8398Z" fill="white"/>
<path d="M53.4799 46.8398H51.5999V48.7198H53.4799V46.8398Z" fill="white"/>
<path d="M38.4399 48.72H36.5599V50.6H38.4399V48.72Z" fill="white"/>
<path d="M42.1999 48.72H40.3199V50.6H42.1999V48.72Z" fill="white"/>
<path d="M44.0801 48.72H42.2001V50.6H44.0801V48.72Z" fill="white"/>
<path d="M45.9599 48.72H44.0799V50.6H45.9599V48.72Z" fill="white"/>
<path d="M53.4799 48.72H51.5999V50.6H53.4799V48.72Z" fill="white"/>
<path d="M55.36 48.72H53.48V50.6H55.36V48.72Z" fill="white"/>
<path d="M57.2402 48.72H55.3602V50.6H57.2402V48.72Z" fill="white"/>
<path d="M59.12 48.72H57.24V50.6H59.12V48.72Z" fill="white"/>
<path d="M60.9999 48.72H59.1199V50.6H60.9999V48.72Z" fill="white"/>
<path d="M30.9199 50.6001H29.0399V52.4801H30.9199V50.6001Z" fill="white"/>
<path d="M32.8001 50.6001H30.9201V52.4801H32.8001V50.6001Z" fill="white"/>
<path d="M34.6799 50.6001H32.7999V52.4801H34.6799V50.6001Z" fill="white"/>
<path d="M36.5601 50.6001H34.6801V52.4801H36.5601V50.6001Z" fill="white"/>
<path d="M40.3201 50.6001H38.4401V52.4801H40.3201V50.6001Z" fill="white"/>
<path d="M42.1999 50.6001H40.3199V52.4801H42.1999V50.6001Z" fill="white"/>
<path d="M45.9599 50.6001H44.0799V52.4801H45.9599V50.6001Z" fill="white"/>
<path d="M47.8401 50.6001H45.9601V52.4801H47.8401V50.6001Z" fill="white"/>
<path d="M49.7199 50.6001H47.8399V52.4801H49.7199V50.6001Z" fill="white"/>
<path d="M51.6 50.6001H49.72V52.4801H51.6V50.6001Z" fill="white"/>
<path d="M53.4799 50.6001H51.5999V52.4801H53.4799V50.6001Z" fill="white"/>
<path d="M55.36 50.6001H53.48V52.4801H55.36V50.6001Z" fill="white"/>
<path d="M57.2402 50.6001H55.3602V52.4801H57.2402V50.6001Z" fill="white"/>
<path d="M60.9999 50.6001H59.1199V52.4801H60.9999V50.6001Z" fill="white"/>
<path d="M32.8001 52.48H30.9201V54.36H32.8001V52.48Z" fill="white"/>
<path d="M34.6799 52.48H32.7999V54.36H34.6799V52.48Z" fill="white"/>
<path d="M38.4399 52.48H36.5599V54.36H38.4399V52.48Z" fill="white"/>
<path d="M45.9599 52.48H44.0799V54.36H45.9599V52.48Z" fill="white"/>
<path d="M47.8401 52.48H45.9601V54.36H47.8401V52.48Z" fill="white"/>
<path d="M49.7199 52.48H47.8399V54.36H49.7199V52.48Z" fill="white"/>
<path d="M51.6 52.48H49.72V54.36H51.6V52.48Z" fill="white"/>
<path d="M57.2402 52.48H55.3602V54.36H57.2402V52.48Z" fill="white"/>
<path d="M59.12 52.48H57.24V54.36H59.12V52.48Z" fill="white"/>
<path d="M60.9999 52.48H59.1199V54.36H60.9999V52.48Z" fill="white"/>
<path d="M34.6799 54.3599H32.7999V56.2399H34.6799V54.3599Z" fill="white"/>
<path d="M36.5601 54.3599H34.6801V56.2399H36.5601V54.3599Z" fill="white"/>
<path d="M38.4399 54.3599H36.5599V56.2399H38.4399V54.3599Z" fill="white"/>
<path d="M40.3201 54.3599H38.4401V56.2399H40.3201V54.3599Z" fill="white"/>
<path d="M42.1999 54.3599H40.3199V56.2399H42.1999V54.3599Z" fill="white"/>
<path d="M44.0801 54.3599H42.2001V56.2399H44.0801V54.3599Z" fill="white"/>
<path d="M45.9599 54.3599H44.0799V56.2399H45.9599V54.3599Z" fill="white"/>
<path d="M49.7199 54.3599H47.8399V56.2399H49.7199V54.3599Z" fill="white"/>
<path d="M55.36 54.3599H53.48V56.2399H55.36V54.3599Z" fill="white"/>
<path d="M59.12 54.3599H57.24V56.2399H59.12V54.3599Z" fill="white"/>
<path d="M32.8001 56.24H30.9201V58.12H32.8001V56.24Z" fill="white"/>
<path d="M36.5601 56.24H34.6801V58.12H36.5601V56.24Z" fill="white"/>
<path d="M40.3201 56.24H38.4401V58.12H40.3201V56.24Z" fill="white"/>
<path d="M47.8401 56.24H45.9601V58.12H47.8401V56.24Z" fill="white"/>
<path d="M51.6 56.24H49.72V58.12H51.6V56.24Z" fill="white"/>
<path d="M53.4799 56.24H51.5999V58.12H53.4799V56.24Z" fill="white"/>
<path d="M55.36 56.24H53.48V58.12H55.36V56.24Z" fill="white"/>
<path d="M57.2402 56.24H55.3602V58.12H57.2402V56.24Z" fill="white"/>
<path d="M59.12 56.24H57.24V58.12H59.12V56.24Z" fill="white"/>
<path d="M30.9199 58.1201H29.0399V60.0001H30.9199V58.1201Z" fill="white"/>
<path d="M32.8001 58.1201H30.9201V60.0001H32.8001V58.1201Z" fill="white"/>
<path d="M34.6799 58.1201H32.7999V60.0001H34.6799V58.1201Z" fill="white"/>
<path d="M38.4399 58.1201H36.5599V60.0001H38.4399V58.1201Z" fill="white"/>
<path d="M40.3201 58.1201H38.4401V60.0001H40.3201V58.1201Z" fill="white"/>
<path d="M44.0801 58.1201H42.2001V60.0001H44.0801V58.1201Z" fill="white"/>
<path d="M47.8401 58.1201H45.9601V60.0001H47.8401V58.1201Z" fill="white"/>
<path d="M49.7199 58.1201H47.8399V60.0001H49.7199V58.1201Z" fill="white"/>
<path d="M57.2402 58.1201H55.3602V60.0001H57.2402V58.1201Z" fill="white"/>
<path d="M59.12 58.1201H57.24V60.0001H59.12V58.1201Z" fill="white"/>
<path d="M60.9999 58.1201H59.1199V60.0001H60.9999V58.1201Z" fill="white"/>
<path d="M25.186 13H15.974H14V14.974V24.186V26.16H15.974H25.186H27.16V24.186V14.974V13H25.186ZM25.186 24.186H15.974V14.974H25.186V24.186Z" fill="white"/>
<path d="M59.0259 13H49.8139H47.8399V14.974V24.186V26.16H49.8139H59.0259H60.9999V24.186V14.974V13H59.0259ZM59.0259 24.186H49.8139V14.974H59.0259V24.186Z" fill="white"/>
<path d="M25.186 46.8398H15.974H14V48.8138V58.0258V59.9998H15.974H25.186H27.16V58.0258V48.8138V46.8398H25.186ZM25.186 58.0258H15.974V48.8138H25.186V58.0258Z" fill="white"/>
<path d="M23.4 16.76H17.76V22.4H23.4V16.76Z" fill="white"/>
<path d="M57.2399 16.76H51.5999V22.4H57.2399V16.76Z" fill="white"/>
<path d="M23.4 50.6001H17.76V56.2401H23.4V50.6001Z" fill="white"/>
<path d="M17 2H5C3.34315 2 2 3.34315 2 5V17" stroke="white" stroke-width="4" stroke-linejoin="round"/>
<path d="M58 71H70C71.6569 71 73 69.6569 73 68V56" stroke="white" stroke-width="4" stroke-linejoin="round"/>
<path d="M58 2H70C71.6569 2 73 3.34315 73 5V17" stroke="#9B27AF" stroke-width="4" stroke-linejoin="round"/>
<path d="M17 71H5C3.34315 71 2 69.6569 2 68V56" stroke="#9B27AF" stroke-width="4" stroke-linejoin="round"/>
</svg>
