<svg width="14" height="12" viewBox="0 0 14 12" fill="none" xmlns="http://www.w3.org/2000/svg">
<path d="M11.9272 2.56829C12.1542 2.56829 12.3383 2.38421 12.3383 2.15713C12.3383 1.93005 12.1542 1.74597 11.9272 1.74597C11.7001 1.74597 11.516 1.93005 11.516 2.15713C11.516 2.38421 11.7001 2.56829 11.9272 2.56829Z" fill="#A915B6"/>
<path d="M6.8993 2.17625C6.83291 1.9591 6.95513 1.72924 7.17228 1.66285C7.38943 1.59646 7.61929 1.71868 7.68568 1.93583C7.75207 2.15298 7.62985 2.38284 7.4127 2.44923C7.19555 2.51562 6.96569 2.3934 6.8993 2.17625Z" fill="#A915B6"/>
<path d="M3.56947 5.13706C3.79405 5.10345 3.94886 4.89415 3.91526 4.66957C3.88165 4.44499 3.67235 4.29018 3.44777 4.32379C3.22319 4.3574 3.06838 4.5667 3.10199 4.79128C3.13559 5.01586 3.34489 5.17067 3.56947 5.13706Z" fill="#A915B6"/>
<path d="M2.05577 11.1892H9.33784C10.2268 11.2397 11.0813 10.7041 11.3932 9.82342L13.8819 2.7954C14.2603 1.72685 13.6988 0.549672 12.6303 0.171268C11.5617 -0.207135 10.3846 0.354371 10.0062 1.42292L9.5998 2.57044L9.25876 1.45493C8.92733 0.3709 7.77576 -0.241371 6.69173 0.0900232C6.16659 0.250595 5.73542 0.606001 5.47763 1.09087C5.21986 1.57565 5.16627 2.13192 5.32681 2.65708L5.66786 3.77256L4.73022 3.07868C4.2888 2.75206 3.74662 2.61687 3.20353 2.69803C2.66045 2.7792 2.18147 3.06701 1.85482 3.5084C1.18055 4.41964 1.37333 5.70956 2.28456 6.38383L3.22223 7.07765H2.0558C0.922203 7.07767 6.1101e-10 7.99999 6.1101e-10 9.13344C-2.741e-05 10.267 0.922203 11.1892 2.05577 11.1892ZM6.07211 5.09457L7.28467 9.06072L2.77371 5.7228C2.22698 5.31824 2.11128 4.54433 2.51586 3.99754C2.71184 3.7327 2.99921 3.56002 3.32507 3.51131C3.65093 3.4626 3.97624 3.54371 4.24108 3.73969L6.07211 5.09457ZM9.13837 3.87357L7.75394 7.78309L6.11325 2.41661C6.0169 2.10152 6.04908 1.76777 6.20373 1.47689C6.35841 1.18598 6.61714 0.972727 6.9322 0.876406C7.58263 0.67757 8.27356 1.04493 8.47243 1.69535L9.13837 3.87357ZM9.04356 10.2999C8.85878 10.2345 8.77737 10.1672 8.64967 10.0708C8.28001 9.75106 8.11697 9.22132 8.29256 8.72544L10.7813 1.69741C11.0084 1.05627 11.7147 0.719398 12.3558 0.946413C12.9969 1.17345 13.3338 1.87974 13.1068 2.52088L10.618 9.5489C10.3899 10.1931 9.68055 10.5255 9.04356 10.2999ZM0.822291 9.13344C0.822264 8.45319 1.37566 7.89999 2.05577 7.89996H4.33348L7.66738 10.3669H2.05574C1.37563 10.3669 0.822291 9.81358 0.822291 9.13344Z" fill="#A915B6"/>
<path d="M1.6449 9.13345C1.6449 8.90638 1.82899 8.72229 2.05606 8.72229C2.28313 8.72229 2.46722 8.90638 2.46722 9.13345C2.46722 9.36052 2.28313 9.54461 2.05606 9.54461C1.82899 9.54461 1.6449 9.36052 1.6449 9.13345Z" fill="#A915B6"/>
<path d="M9.4551 9.54839C9.68218 9.54839 9.86626 9.36431 9.86626 9.13723C9.86626 8.91016 9.68218 8.72607 9.4551 8.72607C9.22803 8.72607 9.04395 8.91016 9.04395 9.13723C9.04395 9.36431 9.22803 9.54839 9.4551 9.54839Z" fill="#A915B6"/>
</svg>
